<svg xmlns="http://www.w3.org/2000/svg" viewBox="0 0 32 32" fill="none" role="img" aria-label="CruiseKit">
  <rect width="32" height="32" rx="7" fill="#FFFFFF" />
  <g transform="translate(4 4)" stroke="#00B4D8" stroke-width="2.5" stroke-linecap="round" stroke-linejoin="round">
    <path d="M2 21c.6.5 1.2 1 2.5 1 2.5 0 2.5-2 5-2 1.25 0 1.875.5 2.5 1s1.25 1 2.5 1 2.5-2 5-2c1.25 0 1.875.5 2.5 1" />
    <path d="M19.38 20A11.6 11.6 0 0 0 21 14l-9-4-9 4c0 2.9.94 5.34 2.81 7.76" />
    <path d="M19 13V7a2 2 0 0 0-2-2H7a2 2 0 0 0-2 2v6" />
    <path d="M12 10v4" />
    <path d="M12 2v3" />
  </g>
</svg>
