<?xml version="1.0" encoding="UTF-8" standalone="no"?>
<!-- Created with Inkscape (http://www.inkscape.org/) -->

<svg
   xmlns:dc="http://purl.org/dc/elements/1.1/"
   xmlns:cc="http://creativecommons.org/ns#"
   xmlns:rdf="http://www.w3.org/1999/02/22-rdf-syntax-ns#"
   xmlns:svg="http://www.w3.org/2000/svg"
   xmlns="http://www.w3.org/2000/svg"
   xmlns:sodipodi="http://sodipodi.sourceforge.net/DTD/sodipodi-0.dtd"
   xmlns:inkscape="http://www.inkscape.org/namespaces/inkscape"
   width="201.8196"
   height="42.57465"
   viewBox="0 0 53.398101 11.264542"
   version="1.1"
   id="svg12685"
   inkscape:version="0.92.0 r15299"
   sodipodi:docname="celebrity cruises.svg">
  <defs
     id="defs12679">
    <clipPath
       id="clipPath10856"
       clipPathUnits="userSpaceOnUse">
      <path
         inkscape:connector-curvature="0"
         id="path10854"
         d="M 0,0 H 595.276 V 841.89 H 0 Z" />
    </clipPath>
    <clipPath
       id="clipPath10834"
       clipPathUnits="userSpaceOnUse">
      <path
         inkscape:connector-curvature="0"
         id="path10832"
         d="M 0,0 H 595.276 V 841.89 H 0 Z" />
    </clipPath>
    <clipPath
       id="clipPath10812"
       clipPathUnits="userSpaceOnUse">
      <path
         inkscape:connector-curvature="0"
         id="path10810"
         d="M 0,0 H 595.276 V 841.89 H 0 Z" />
    </clipPath>
    <clipPath
       id="clipPath10856-5"
       clipPathUnits="userSpaceOnUse">
      <path
         inkscape:connector-curvature="0"
         id="path10854-3"
         d="M 0,0 H 595.276 V 841.89 H 0 Z" />
    </clipPath>
    <clipPath
       id="clipPath10834-0"
       clipPathUnits="userSpaceOnUse">
      <path
         inkscape:connector-curvature="0"
         id="path10832-1"
         d="M 0,0 H 595.276 V 841.89 H 0 Z" />
    </clipPath>
    <clipPath
       id="clipPath10812-0"
       clipPathUnits="userSpaceOnUse">
      <path
         inkscape:connector-curvature="0"
         id="path10810-0"
         d="M 0,0 H 595.276 V 841.89 H 0 Z" />
    </clipPath>
  </defs>
  <sodipodi:namedview
     id="base"
     pagecolor="#ffffff"
     bordercolor="#666666"
     borderopacity="1.0"
     inkscape:pageopacity="0.0"
     inkscape:pageshadow="2"
     inkscape:zoom="3.9936342"
     inkscape:cx="100.4098"
     inkscape:cy="20.787333"
     inkscape:document-units="mm"
     inkscape:current-layer="layer1"
     showgrid="false"
     fit-margin-top="0"
     fit-margin-left="0"
     fit-margin-right="0"
     fit-margin-bottom="0"
     units="px"
     inkscape:window-width="1280"
     inkscape:window-height="744"
     inkscape:window-x="-4"
     inkscape:window-y="-4"
     inkscape:window-maximized="1" />
  <metadata
     id="metadata12682">
    <rdf:RDF>
      <cc:Work
         rdf:about="">
        <dc:format>image/svg+xml</dc:format>
        <dc:type
           rdf:resource="http://purl.org/dc/dcmitype/StillImage" />
        <dc:title></dc:title>
      </cc:Work>
    </rdf:RDF>
  </metadata>
  <g
     inkscape:label="Layer 1"
     inkscape:groupmode="layer"
     id="layer1"
     transform="translate(54.922302,-139.58629)">
    <g
       id="g13239"
       transform="translate(0.13229183,-0.13228872)">
      <path
         d="m -35.330753,150.85083 5.24263,-5.74252 -4.742744,-5.25744 h 3.584575 l 2.975681,3.26637 2.982383,-3.26637 h 3.592689 l -4.756503,5.26168 5.228872,5.73828 h -3.684411 l -3.361972,-3.72745 -3.369733,3.72745 z"
         style="fill:#005092;fill-opacity:1;fill-rule:nonzero;stroke:none;stroke-width:0.35277778"
         id="path10804"
         inkscape:connector-curvature="0" />
      <path
         d="m -2.7864399,143.28833 c 0.5552722,0 0.9976555,0.45156 0.9976555,1.01565 0,0.57361 -0.4423833,1.02164 -1.0022416,1.02164 -0.5559778,0 -1.0071805,-0.44803 -1.0071805,-1.02164 0,-0.56409 0.4512027,-1.01565 1.0071805,-1.01565 z m -0.00459,0.15804 c -0.4473222,0 -0.8131528,0.38383 -0.8131528,0.85761 0,0.4833 0.3658306,0.8636 0.8177389,0.8636 0.45085,0.004 0.8128,-0.3803 0.8128,-0.85866 0,-0.47872 -0.36195,-0.86255 -0.8128,-0.86255 z m -0.1905,1.44957 h -0.1799167 v -1.13383 c 0.094545,-0.0141 0.1848556,-0.0268 0.3203222,-0.0268 0.1718028,0 0.2843389,0.0363 0.3520723,0.085 0.067733,0.0504 0.1051277,0.127 0.1051277,0.23565 0,0.14888 -0.099836,0.23954 -0.2218972,0.27588 v 0.008 c 0.099483,0.018 0.1672167,0.10866 0.1894417,0.27588 0.026811,0.17603 0.053622,0.24306 0.071967,0.27975 H -2.533851 c -0.027517,-0.0367 -0.053622,-0.14041 -0.076553,-0.28893 -0.027517,-0.14499 -0.099483,-0.19861 -0.2441222,-0.19861 h -0.127 z m 0,-0.6283 h 0.1305278 c 0.1502833,0 0.2769305,-0.0536 0.2769305,-0.19438 0,-0.0984 -0.073025,-0.19791 -0.2769305,-0.19791 -0.058561,0 -0.097367,0.005 -0.1305278,0.009 z"
         style="fill:#005092;fill-opacity:1;fill-rule:nonzero;stroke:none;stroke-width:0.35277778"
         id="path10816"
         inkscape:connector-curvature="0" />
      <path
         d="m -52.340322,144.52718 c -0.103717,-0.40675 -0.367242,-0.7052 -0.883708,-0.7052 -0.759884,0 -1.077736,0.67063 -1.077736,1.35114 0,0.68015 0.317852,1.35043 1.077736,1.35043 0.551391,0 0.853722,-0.41205 0.903816,-0.92816 h 0.606073 c -0.05009,0.84878 -0.650875,1.43475 -1.509889,1.43475 -1.062567,0 -1.698272,-0.84385 -1.698272,-1.85702 0,-1.01318 0.635705,-1.85738 1.698272,-1.85738 0.799394,0.005 1.430161,0.44662 1.50495,1.21144 z"
         style="fill:#005092;fill-opacity:1;fill-rule:nonzero;stroke:none;stroke-width:0.35277778"
         id="path10820"
         inkscape:connector-curvature="0" />
      <path
         d="m -50.831174,145.80801 c 0,0.40252 0.218369,0.76059 0.690033,0.76059 0.327731,0 0.526698,-0.14429 0.625828,-0.42722 h 0.536222 c -0.124177,0.56092 -0.601133,0.87454 -1.16205,0.87454 -0.804686,0 -1.256241,-0.56162 -1.256241,-1.35114 0,-0.73025 0.476602,-1.35572 1.241425,-1.35572 0.809272,0 1.306336,0.72989 1.211439,1.49895 z m 1.3208,-0.37183 c -0.01976,-0.35771 -0.263172,-0.68015 -0.645583,-0.68015 -0.391936,0 -0.660753,0.29809 -0.675217,0.68015 z"
         style="fill:#005092;fill-opacity:1;fill-rule:nonzero;stroke:none;stroke-width:0.35277778"
         id="path10824"
         inkscape:connector-curvature="0" />
      <path
         inkscape:connector-curvature="0"
         id="path10826"
         style="fill:#005092;fill-opacity:1;fill-rule:nonzero;stroke:none;stroke-width:0.35277778"
         d="m -48.50164,146.94589 h 0.566208 v -3.54576 h -0.566208 z" />
      <path
         d="m -46.952241,145.80801 c 0,0.40252 0.218369,0.76059 0.690386,0.76059 0.327378,0 0.525992,-0.14429 0.625475,-0.42722 h 0.536222 c -0.124177,0.56092 -0.601133,0.87454 -1.161697,0.87454 -0.805039,0 -1.256242,-0.56162 -1.256242,-1.35114 0,-0.73025 0.47625,-1.35572 1.241073,-1.35572 0.809272,0 1.305983,0.72989 1.211791,1.49895 z m 1.3208,-0.37183 c -0.01976,-0.35771 -0.263525,-0.68015 -0.645583,-0.68015 -0.392289,0 -0.6604,0.29809 -0.675217,0.68015 z"
         style="fill:#005092;fill-opacity:1;fill-rule:nonzero;stroke:none;stroke-width:0.35277778"
         id="path10838"
         inkscape:connector-curvature="0" />
      <path
         d="m -44.639395,143.40009 h 0.565856 v 1.31092 h 0.0099 c 0.154164,-0.24835 0.476603,-0.40216 0.764823,-0.40216 0.809625,0 1.201561,0.61595 1.201561,1.36595 0,0.69003 -0.347486,1.34126 -1.10737,1.34126 -0.347486,0 -0.720019,-0.085 -0.889,-0.42298 h -0.0099 v 0.35278 h -0.535869 z m 1.266119,1.35572 c -0.476602,0 -0.720372,0.36231 -0.720372,0.90876 0,0.51647 0.263172,0.90417 0.720372,0.90417 0.516467,0 0.710142,-0.4572 0.710142,-0.90417 0,-0.46708 -0.243769,-0.90876 -0.710142,-0.90876"
         style="fill:#005092;fill-opacity:1;fill-rule:nonzero;stroke:none;stroke-width:0.35277778"
         id="path10842"
         inkscape:connector-curvature="0" />
      <path
         d="m -41.595381,144.3783 h 0.530931 v 0.49706 h 0.01023 c 0.06385,-0.2734 0.402167,-0.56656 0.749653,-0.56656 0.129117,0 0.164042,0.0102 0.21343,0.0152 v 0.5461 c -0.07902,-0.01 -0.163688,-0.025 -0.243063,-0.025 -0.387703,0 -0.695678,0.31292 -0.695678,0.87913 v 1.22167 h -0.565503 z"
         style="fill:#005092;fill-opacity:1;fill-rule:nonzero;stroke:none;stroke-width:0.35277778"
         id="path10846"
         inkscape:connector-curvature="0" />
      <path
         inkscape:connector-curvature="0"
         id="path10848"
         style="fill:#005092;fill-opacity:1;fill-rule:nonzero;stroke:none;stroke-width:0.35277778"
         d="m -39.650446,143.40013 h 0.566208 v 0.53622 h -0.566208 z m 0,0.97825 h 0.566208 v 2.56716 h -0.566208 z" />
      <path
         d="m -38.60312,144.3783 h 0.427567 v -0.76976 h 0.565855 v 0.76976 h 0.511528 v 0.42227 h -0.511528 v 1.37055 c 0,0.23354 0.01976,0.35242 0.27305,0.35242 0.07973,0 0.159103,0 0.238478,-0.0194 v 0.43674 c -0.124178,0.01 -0.243417,0.0296 -0.367594,0.0296 -0.590903,0 -0.700264,-0.22789 -0.709789,-0.65475 v -1.51519 h -0.427567 z"
         style="fill:#005092;fill-opacity:1;fill-rule:nonzero;stroke:none;stroke-width:0.35277778"
         id="path10860"
         inkscape:connector-curvature="0" />
      <path
         d="m -36.76289,144.3783 h 0.620889 l 0.669925,1.91699 h 0.01058 l 0.65017,-1.91699 h 0.591255 l -0.998361,2.70686 c -0.183444,0.46179 -0.317853,0.87842 -0.908403,0.87842 -0.134408,0 -0.263877,-0.01 -0.392641,-0.0293 v -0.47731 c 0.08925,0.0148 0.178505,0.0349 0.268111,0.0349 0.263525,0 0.327378,-0.139 0.397228,-0.35737 l 0.06456,-0.19896 z"
         style="fill:#005092;fill-opacity:1;fill-rule:nonzero;stroke:none;stroke-width:0.35277778"
         id="path10864"
         inkscape:connector-curvature="0" />
      <path
         d="m -19.765105,144.52718 c -0.103717,-0.40675 -0.367242,-0.7052 -0.883708,-0.7052 -0.760236,0 -1.077736,0.67063 -1.077736,1.35114 0,0.68015 0.3175,1.35043 1.077736,1.35043 0.551039,0 0.854427,-0.41205 0.904169,-0.92816 h 0.605367 c -0.04939,0.84878 -0.650522,1.43475 -1.509536,1.43475 -1.062567,0 -1.698272,-0.84385 -1.698272,-1.85702 0,-1.01318 0.635705,-1.85738 1.698272,-1.85738 0.799747,0.005 1.429455,0.44662 1.504597,1.21144 z"
         style="fill:#005092;fill-opacity:1;fill-rule:nonzero;stroke:none;stroke-width:0.35277778"
         id="path10868"
         inkscape:connector-curvature="0" />
      <path
         d="m -18.628314,144.3783 h 0.531636 v 0.49706 h 0.01023 c 0.06456,-0.2734 0.402519,-0.56656 0.749652,-0.56656 0.129117,0 0.163689,0.0102 0.213431,0.0152 v 0.5461 c -0.07938,-0.01 -0.163689,-0.025 -0.243064,-0.025 -0.38735,0 -0.695325,0.31292 -0.695325,0.87913 v 1.22167 h -0.566561 z"
         style="fill:#005092;fill-opacity:1;fill-rule:nonzero;stroke:none;stroke-width:0.35277778"
         id="path10872"
         inkscape:connector-curvature="0" />
      <path
         d="m -14.402001,146.94586 h -0.556331 v -0.35736 h -0.0095 c -0.139347,0.25823 -0.447322,0.42756 -0.73025,0.42756 -0.669572,0 -0.958497,-0.33831 -0.958497,-1.00894 v -1.62878 h 0.566209 v 1.57445 c 0,0.45156 0.183797,0.61595 0.491419,0.61595 0.471664,0 0.631119,-0.30339 0.631119,-0.70026 v -1.49014 h 0.565856 z"
         style="fill:#005092;fill-opacity:1;fill-rule:nonzero;stroke:none;stroke-width:0.35277778"
         id="path10876"
         inkscape:connector-curvature="0" />
      <path
         inkscape:connector-curvature="0"
         id="path10878"
         style="fill:#005092;fill-opacity:1;fill-rule:nonzero;stroke:none;stroke-width:0.35277778"
         d="m -13.737506,143.40013 h 0.566208 v 0.53622 h -0.566208 z m 0,0.97825 h 0.566208 v 2.56716 h -0.566208 z" />
      <path
         d="m -12.033309,146.12138 c 0.02999,0.32808 0.277989,0.44732 0.581025,0.44732 0.213783,0 0.586317,-0.0452 0.571147,-0.33796 -0.01517,-0.29774 -0.427214,-0.33302 -0.839611,-0.42721 -0.41663,-0.0893 -0.824442,-0.23813 -0.824442,-0.75989 0,-0.56091 0.606073,-0.73483 1.072798,-0.73483 0.526344,0 1.002947,0.21837 1.072797,0.78987 h -0.591256 c -0.04939,-0.26811 -0.272697,-0.3429 -0.521405,-0.3429 -0.163689,0 -0.467078,0.0395 -0.467078,0.26317 0,0.27834 0.417689,0.31785 0.834672,0.41204 0.412397,0.0945 0.829381,0.24377 0.829381,0.75001 0,0.61066 -0.615597,0.83502 -1.146881,0.83502 -0.645583,0 -1.127125,-0.28892 -1.137003,-0.89464 z"
         style="fill:#005092;fill-opacity:1;fill-rule:nonzero;stroke:none;stroke-width:0.35277778"
         id="path10890"
         inkscape:connector-curvature="0" />
      <path
         d="m -9.4164739,145.80801 c 0,0.40252 0.2187222,0.76059 0.6903861,0.76059 0.3273778,0 0.5259917,-0.14429 0.6258278,-0.42722 h 0.5362222 c -0.1245306,0.56092 -0.6011333,0.87454 -1.16205,0.87454 -0.8043333,0 -1.2562416,-0.56162 -1.2562416,-1.35114 0,-0.73025 0.4766027,-1.35572 1.2410722,-1.35572 0.8096249,0 1.3059833,0.72989 1.2114388,1.49895 z m 1.3208,-0.37183 c -0.019756,-0.35771 -0.2631722,-0.68015 -0.6455833,-0.68015 -0.3922889,0 -0.6604,0.29809 -0.6752167,0.68015 z"
         style="fill:#005092;fill-opacity:1;fill-rule:nonzero;stroke:none;stroke-width:0.35277778"
         id="path10894"
         inkscape:connector-curvature="0" />
      <path
         d="m -6.5463429,146.12138 c 0.029986,0.32808 0.2786944,0.44732 0.5813778,0.44732 0.2134305,0 0.5856111,-0.0452 0.5707944,-0.33796 -0.014817,-0.29774 -0.4272139,-0.33302 -0.8392583,-0.42721 -0.4176889,-0.0893 -0.8244417,-0.23813 -0.8244417,-0.75989 0,-0.56091 0.6060722,-0.73483 1.07315,-0.73483 0.5263444,0 1.0025944,0.21837 1.0720917,0.78987 h -0.5912556 c -0.049389,-0.26811 -0.2726972,-0.3429 -0.5210528,-0.3429 -0.1636888,0 -0.4670777,0.0395 -0.4670777,0.26317 0,0.27834 0.4176889,0.31785 0.8346722,0.41204 0.4120444,0.0945 0.8293805,0.24377 0.8293805,0.75001 0,0.61066 -0.6163027,0.83502 -1.1468805,0.83502 -0.6455833,0 -1.1278305,-0.28892 -1.1373555,-0.89464 z"
         style="fill:#005092;fill-opacity:1;fill-rule:nonzero;stroke:none;stroke-width:0.35277778"
         id="path10898"
         inkscape:connector-curvature="0" />
      <path
         d="m -20.643415,139.8654 c 0.443794,0 0.797983,0.3616 0.797983,0.81315 0,0.45826 -0.354189,0.81704 -0.801864,0.81704 -0.444852,0 -0.806097,-0.35878 -0.806097,-0.81704 0,-0.45155 0.361245,-0.81315 0.806097,-0.81315 z m -0.0039,0.127 c -0.357716,0 -0.650522,0.30656 -0.650522,0.68615 0,0.38665 0.292806,0.69004 0.654403,0.69004 0.360539,0.003 0.650169,-0.30339 0.650169,-0.68616 0,-0.38347 -0.28963,-0.69003 -0.650169,-0.69003 z m -0.1524,1.15923 h -0.144286 v -0.90699 c 0.07585,-0.0113 0.148167,-0.0215 0.25647,-0.0215 0.137583,0 0.227541,0.0293 0.281869,0.0684 0.05398,0.0399 0.08396,0.10124 0.08396,0.18838 0,0.11888 -0.07973,0.1912 -0.1778,0.22048 v 0.006 c 0.07973,0.0152 0.133703,0.0871 0.151695,0.22084 0.02187,0.14111 0.04339,0.19509 0.05785,0.22402 h -0.151694 c -0.02152,-0.0289 -0.04304,-0.11219 -0.06138,-0.23107 -0.02187,-0.11607 -0.07973,-0.15875 -0.195087,-0.15875 h -0.1016 z m 0,-0.50271 h 0.10407 c 0.120297,0 0.221897,-0.0427 0.221897,-0.15522 0,-0.079 -0.05821,-0.1584 -0.221897,-0.1584 -0.04657,0 -0.07796,0.004 -0.10407,0.007 z"
         style="fill:#005092;fill-opacity:1;fill-rule:nonzero;stroke:none;stroke-width:0.35277778"
         id="path10902"
         inkscape:connector-curvature="0" />
    </g>
  </g>
</svg>
