<?xml version="1.0" encoding="utf-8"?>
<!-- Generator: Adobe Illustrator 24.3.0, SVG Export Plug-In . SVG Version: 6.00 Build 0)  -->
<svg version="1.1" id="Layer_1" xmlns="http://www.w3.org/2000/svg" xmlns:xlink="http://www.w3.org/1999/xlink" x="0px" y="0px"
	 viewBox="0 0 512 512" style="enable-background:new 0 0 512 512;" xml:space="preserve">
<style type="text/css">
	.st0{clip-path:url(#SVGID_2_);fill:#FF0100;}
	.st1{clip-path:url(#SVGID_4_);fill:#FF0100;}
	.st2{clip-path:url(#SVGID_6_);fill:#FF0100;}
	.st3{clip-path:url(#SVGID_8_);fill:#FF0100;}
	.st4{clip-path:url(#SVGID_10_);fill:#FF0100;}
	.st5{clip-path:url(#SVGID_12_);fill:#FF0100;}
	.st6{clip-path:url(#SVGID_14_);fill:#FF0100;}
	.st7{clip-path:url(#SVGID_16_);fill:#022EB8;}
	.st8{clip-path:url(#SVGID_18_);fill:#022EB8;}
	.st9{clip-path:url(#SVGID_20_);fill:#022EB8;}
	.st10{clip-path:url(#SVGID_22_);fill:#022EB8;}
	.st11{clip-path:url(#SVGID_24_);fill:#022EB8;}
	.st12{clip-path:url(#SVGID_26_);fill:#022EB8;}
	.st13{clip-path:url(#SVGID_28_);fill:#022EB8;}
	.st14{clip-path:url(#SVGID_30_);fill:#022EB8;}
	.st15{clip-path:url(#SVGID_32_);fill:#022EB8;}
	.st16{clip-path:url(#SVGID_34_);fill:#022EB8;}
	.st17{clip-path:url(#SVGID_36_);fill:#022EB8;}
	.st18{clip-path:url(#SVGID_38_);fill:#022EB8;}
	.st19{clip-path:url(#SVGID_40_);fill:#022EB8;}
	.st20{clip-path:url(#SVGID_42_);fill:#022EB8;}
</style>
<g id="XMLID_1_">
	<g id="XMLID_2_">
		<g>
			<defs>
				<rect id="SVGID_1_" y="187.55" width="512" height="136.91"/>
			</defs>
			<clipPath id="SVGID_2_">
				<use xlink:href="#SVGID_1_"  style="overflow:visible;"/>
			</clipPath>
			<path id="XMLID_4_" class="st0" d="M232.01,225.84c-2.24,0.42-5.05,0.7-7.01,1.68c-0.98,0-2.24,0.98-1.96,2.38
				c3.93,5.33,9.96,8.7,15.99,10.66c0-5.33,0.7-10.24,0.7-15.57C238.61,224.72,236.22,225,232.01,225.84 M259.23,249.69
				c-4.21,0-8.42-0.56-12.48-1.54c-0.28,1.4,0,3.37-1.68,3.93c-0.7,0-1.54,0.14-2.24,0.14c-0.42,0-0.84,0-1.4-0.14
				c-1.68-1.68-1.68-4.35-1.96-6.59c-6.03-2.95-15.43-9.4-18.24-15.57c0-0.14-0.14-0.84-0.14-0.98c0-3.37,5.89-6.45,8.7-7.29
				c1.26-0.42,9.12-2.81,9.96-2.67c0.56-4.63,0.28-10.24,2.67-14.31c2.24,0.7,3.51,3.23,3.65,5.33c0.14,2.67,0.14,5.33,0.28,8
				l0.7,0.42c1.12,0,2.24,0,3.37,0c5.75,0,20.06,1.82,20.06,9.54c0,2.67-2.67,4.49-4.77,5.75c-3.09,0.7-2.81-0.28-4.07-0.7v-0.28
				c0-1.4,3.65-2.24,3.37-4.35c-3.79-2.81-12.91-3.79-17.53-3.79c-0.42,0-0.7,0.14-1.12,0.42c0,5.89,0,11.92,0.28,17.96
				c3.23,0.7,6.59,0.98,9.82,0.98c9.68,0,24.55-3.79,24.55-15.85c0-1.68-0.28-3.51-0.84-5.05c-5.19-13.47-18.94-20.62-31.56-25.53
				c-7.72-3.09-15.99-4.77-24.41-4.77c-2.1,0-10.66,0.28-11.78,1.82c0.84,0.56,3.65,0.28,3.65,1.54c0,0.7-1.26,0.84-1.68,1.12
				c-1.96-0.28-4.21,0.42-5.33-1.68c0-2.52,1.54-4.49,3.93-5.33c5.05-1.68,10.66-2.38,15.99-2.38c15.85,0,30.86,6.59,43.48,15.71
				c7.15,5.19,15.99,15.43,15.99,24.83C288.68,243.24,272.13,249.69,259.23,249.69"/>
		</g>
		<g>
			<defs>
				<rect id="SVGID_3_" y="187.55" width="512" height="136.91"/>
			</defs>
			<clipPath id="SVGID_4_">
				<use xlink:href="#SVGID_3_"  style="overflow:visible;"/>
			</clipPath>
			<path id="XMLID_7_" class="st1" d="M306.92,199.61c-5.05,0-9.82,5.33-12.2,9.4c0.7,0,1.4,0.14,1.96,0.14l5.89-1.12
				c2.81-0.98,6.45-3.51,6.45-6.73C309.02,199.89,307.9,199.61,306.92,199.61 M298.64,244.78c-0.7,0.7-1.82,1.12-2.95,1.12
				c-3.51,0-3.37-3.79-3.37-6.45c0-4.49-0.14-15.29,0.98-19.36c0.14-0.7,0.84-1.68,1.68-1.68c1.96,0,2.38,2.38,2.67,3.93
				c0.84,5.89,1.12,12.2,1.12,18.1C298.78,242.11,298.78,243.38,298.64,244.78 M289.39,205.5c0,0.42,0,0.84,0.42,1.12
				c2.1-2.81,4.49-5.19,7.01-7.72c-1.96,0-4.07,1.26-5.33,2.67C290.51,202.42,289.39,204.24,289.39,205.5 M301.59,193.44
				c2.95,0,4.35,0.42,6.03,2.95c0.14,0,0.42,0,0.56,0c0.98,0,1.82,0.7,2.81,0.98c1.12,0.84,1.54,1.96,1.54,3.51
				c1.26,7.29-6.31,10.8-7.72,11.36c-2.67,0.98-5.33,1.96-8,1.96c-1.68,0-3.37-0.28-5.05-0.7c-0.56,0.56-0.98,2.24-1.96,2.24
				c-1.12,0-1.54-1.12-2.1-1.96v-2.95c-1.26-1.26-1.96-3.09-1.96-4.91c0-2.24,1.4-4.91,2.95-6.45
				C292.61,195.4,295.98,193.44,301.59,193.44"/>
		</g>
		<g>
			<defs>
				<rect id="SVGID_5_" y="187.55" width="512" height="136.91"/>
			</defs>
			<clipPath id="SVGID_6_">
				<use xlink:href="#SVGID_5_"  style="overflow:visible;"/>
			</clipPath>
			<path id="XMLID_12_" class="st2" d="M323.61,223.88c-5.61,0.7-11.92,0.42-17.25,2.67c0,0.7,1.4,0.7,1.96,0.98
				c6.31,1.96,15.29-0.98,19.64,5.61c0.98,2.67,0.7,6.59-0.7,8.7c-3.65,4.07-9.54,4.63-14.87,4.07c-4.07-0.98-8-2.95-9.4-7.01
				c-0.28-1.68,0.28-2.95,1.4-3.93c2.95-2.24,7.01-1.82,10.94-1.4c2.1,0.14,4.63,1.4,5.75,1.96c0,0.98,0,2.38-4.63,2.95
				c-2.95,0.42-7.29-3.65-10.66-1.68c-0.7,0.28-0.7,1.4-0.42,1.68c2.38,2.67,6.59,1.4,9.68,1.4c3.37-0.7,7.72-1.4,9.4-3.65
				c-0.7-2.95-3.65-2.95-5.75-3.65c-5.05-0.98-10.24-0.7-15.29-1.68c-0.98-0.42-1.68-1.68-1.96-2.67c0-2.67,0.98-5.05,3.37-6.31
				c6.59-3.65,16.97-4.63,24.27-1.68c0.7,0.7,0,1.4,0,1.96C327.54,223.46,325.58,223.6,323.61,223.88"/>
		</g>
		<g>
			<defs>
				<rect id="SVGID_7_" y="187.55" width="512" height="136.91"/>
			</defs>
			<clipPath id="SVGID_8_">
				<use xlink:href="#SVGID_7_"  style="overflow:visible;"/>
			</clipPath>
			<path id="XMLID_13_" class="st3" d="M349.98,243.8c-0.7,0.7-1.96,0.84-2.67,0.28c-4.91-4.07-6.59-9.96-9.96-15.01l-0.28,0.98
				l-0.98,13.89c-0.42,0.98-0.98,1.96-1.68,1.96c-1.4,0-2.38-0.98-2.95-1.96c-1.4-2.95-0.28-7.01-0.28-10.24
				c0.7-4.35,1.26-8.28,3.37-11.92c0.28-0.98,1.26-1.68,2.24-0.98c5.05,4.63,7.72,10.66,11.36,15.57c0.98,0,0.28-0.98,0.7-1.26
				c0-7.01-2.67-12.62-3.65-18.94c0-0.7-0.28-1.68,0.28-1.96c1.96,0.28,2.95,2.24,4.07,3.37c3.93,5.61,5.61,12.62,5.05,19.92
				C353.63,239.73,352.65,242.81,349.98,243.8"/>
		</g>
		<g>
			<defs>
				<rect id="SVGID_9_" y="187.55" width="512" height="136.91"/>
			</defs>
			<clipPath id="SVGID_10_">
				<use xlink:href="#SVGID_9_"  style="overflow:visible;"/>
			</clipPath>
			<path id="XMLID_14_" class="st4" d="M373.13,224.16h-5.33l-1.4,3.93h0.28c2.67,0,5.75-0.28,8,0.7c0.7,0.7,0.28,1.96,0.28,2.95
				c-1.26,1.4-3.65,0.98-5.61,0.98c-1.68,0.28-4.77-0.7-5.33,1.68l-0.98,3.93v0.42c4.07-0.42,8-2.1,11.92-1.4
				c0.7,0.98,1.4,2.24,0.98,3.37c-4.35,3.37-9.4,6.59-15.29,5.61c-2.38-0.98-4.07-3.65-4.35-6.31c-0.42-3.65,3.37-6.31,1.68-9.96
				c-0.28-0.98,0.98-0.98,1.4-1.26c1.68,0,1.68-2.1,2.24-2.95l0.7-1.96c-1.96-0.7-4.35-0.98-5.05-3.65c0-0.7,1.4-0.28,1.68-0.7
				c5.61-0.7,11.36-1.96,16.97-1.68c1.96,0.98,3.93,2.67,3.65,5.05C378.04,224.16,375.51,223.88,373.13,224.16"/>
		</g>
		<g>
			<defs>
				<rect id="SVGID_11_" y="187.55" width="512" height="136.91"/>
			</defs>
			<clipPath id="SVGID_12_">
				<use xlink:href="#SVGID_11_"  style="overflow:visible;"/>
			</clipPath>
			<path id="XMLID_15_" class="st5" d="M401.6,226.54c-2.24,2.1-3.93,4.35-5.61,6.31c-1.68,2.67-3.37,5.33-4.63,7.72
				c2.95,0,5.75-1.26,8-3.37c2.67-2.24,3.93-5.75,3.65-9.4C402.59,227.52,402.59,226.12,401.6,226.54 M391.64,247.44l-3.93,0.28
				c-2.38,7.29-4.63,15.01-6.03,23c-1.96,0.28-4.35-1.96-5.33-3.93c-0.7-1.68,0-3.65,0-5.33c1.4-6.31,2.67-12.91,5.33-18.66
				c-0.28-1.4-0.98-2.24-1.4-3.65c-0.98-7.29,2.67-13.33,7.29-18.66c0.7-0.7,1.68-2.38,2.67-1.96c0.7,5.89-5.33,9.96-5.89,15.85
				c0,0.98,0,1.68,0.28,2.38c1.96-2.38,3.93-5.33,5.89-7.72c2.95-3.37,6.03-6.03,9.68-8c1.4-0.28,2.81,0,3.65,0.98
				c2.38,2.95,3.65,6.59,2.67,10.66C404.83,239.73,398.24,246.18,391.64,247.44"/>
		</g>
		<g>
			<defs>
				<rect id="SVGID_13_" y="187.55" width="512" height="136.91"/>
			</defs>
			<clipPath id="SVGID_14_">
				<use xlink:href="#SVGID_13_"  style="overflow:visible;"/>
			</clipPath>
			<path id="XMLID_18_" class="st6" d="M91.32,249.27c1.54-3.37,1.54-7.15-0.28-10.24c-3.23-5.75-11.5-7.15-18.24-3.23
				c-6.87,3.93-9.68,11.78-6.31,17.39c2.81,4.77,8.98,6.59,14.87,4.63l0,0c-1.82,3.09-2.81,6.59-2.81,10.38
				c0,11.36,9.26,20.62,20.62,20.62s20.62-9.26,20.62-20.62c0-3.79-0.98-7.29-2.81-10.38l0,0c6.03,1.96,12.2,0.14,15.01-4.63
				c3.23-5.75,0.42-13.47-6.31-17.39c-6.87-3.93-15.01-2.52-18.24,3.23c-1.82,3.09-1.82,6.87-0.28,10.24l0,0
				c-2.38-0.98-5.05-1.54-7.86-1.54C96.37,247.58,93.7,248.14,91.32,249.27L91.32,249.27z"/>
		</g>
		<g>
			<defs>
				<rect id="SVGID_15_" y="187.55" width="512" height="136.91"/>
			</defs>
			<clipPath id="SVGID_16_">
				<use xlink:href="#SVGID_15_"  style="overflow:visible;"/>
			</clipPath>
			<path id="XMLID_19_" class="st7" d="M194.7,273.39c-6.73-4.21-13.75-6.03-20.9-6.03c-7.01,0-21.74,3.79-45.45,17.53
				c-18.52,10.66-39.14,15.85-47.27,15.85c-16.69,0-28.62-8.7-33.67-14.45c9.12,3.79,12.2,4.07,16.83,4.07
				c4.77,0,10.66-1.82,17.67-4.77c7.15,7.57,19.92,8.98,28.48,4.35c8.28-4.49,13.05-12.91,12.91-22.02
				c11.36-5.47,22.3-10.66,40.96-10.66C179.55,256.98,189.79,266.94,194.7,273.39"/>
		</g>
		<g>
			<defs>
				<rect id="SVGID_17_" y="187.55" width="512" height="136.91"/>
			</defs>
			<clipPath id="SVGID_18_">
				<use xlink:href="#SVGID_17_"  style="overflow:visible;"/>
			</clipPath>
			<path id="XMLID_20_" class="st8" d="M69.01,260.49c-13.05,5.75-21.6,8.42-28.48,8.42c-4.63,0-7.86-0.14-16.83-4.07
				c5.05,5.89,16.83,14.45,33.67,14.45c3.93,0,10.52-1.4,18.8-3.79c-1.12-3.23-1.54-8.56-0.42-13.33
				C73.64,262.03,70.84,261.47,69.01,260.49"/>
		</g>
		<g>
			<defs>
				<rect id="SVGID_19_" y="187.55" width="512" height="136.91"/>
			</defs>
			<clipPath id="SVGID_20_">
				<use xlink:href="#SVGID_19_"  style="overflow:visible;"/>
			</clipPath>
			<path id="XMLID_21_" class="st9" d="M132,236.22c2.1-0.42,6.59-0.56,8.7-0.56c15.29,0,25.39,9.96,30.44,16.27
				c-6.73-4.21-13.75-6.03-20.9-6.03c-2.81,0-7.72,1.12-13.05,2.67C137.05,243.94,134.8,239.17,132,236.22"/>
		</g>
		<g>
			<defs>
				<rect id="SVGID_21_" y="187.55" width="512" height="136.91"/>
			</defs>
			<clipPath id="SVGID_22_">
				<use xlink:href="#SVGID_21_"  style="overflow:visible;"/>
			</clipPath>
			<path id="XMLID_22_" class="st10" d="M147.29,230.89c-6.73-4.21-13.75-6.03-20.9-6.03c-5.75,0-16.41,2.38-33.24,10.8
				c-4.77-6.17-14.45-7.57-22.44-2.81c-7.15,4.35-10.24,12.2-8.84,18.52c-11.5,4.49-23,6.73-28.34,6.73
				c-16.69,0-28.62-8.7-33.67-14.45c9.12,3.79,12.2,4.07,16.83,4.07c10.24,0,25.53-6.87,51.48-19.08
				c14.73-7.01,25.67-14.03,48.53-14.03C132.14,214.62,142.38,224.58,147.29,230.89"/>
		</g>
		<g>
			<defs>
				<rect id="SVGID_23_" y="187.55" width="512" height="136.91"/>
			</defs>
			<clipPath id="SVGID_24_">
				<use xlink:href="#SVGID_23_"  style="overflow:visible;"/>
			</clipPath>
			<rect id="XMLID_23_" x="321.93" y="278.44" class="st11" width="6.31" height="44.75"/>
		</g>
		<g>
			<defs>
				<rect id="SVGID_25_" y="187.55" width="512" height="136.91"/>
			</defs>
			<clipPath id="SVGID_26_">
				<use xlink:href="#SVGID_25_"  style="overflow:visible;"/>
			</clipPath>
			<polygon id="XMLID_24_" class="st12" points="373.41,318.56 373.41,311.55 382.53,311.55 382.53,305.8 373.41,305.8 
				373.41,284.05 382.53,284.05 382.53,278.44 367.1,278.44 367.1,323.33 383.23,323.33 383.23,318.56 			"/>
		</g>
		<g>
			<defs>
				<rect id="SVGID_27_" y="187.55" width="512" height="136.91"/>
			</defs>
			<clipPath id="SVGID_28_">
				<use xlink:href="#SVGID_27_"  style="overflow:visible;"/>
			</clipPath>
			<polygon id="XMLID_25_" class="st13" points="502.18,318.56 502.18,311.55 511.3,311.55 511.3,305.8 502.18,305.8 502.18,284.05 
				511.3,284.05 511.3,278.44 495.87,278.44 495.87,323.33 512,323.33 512,318.56 			"/>
		</g>
		<g>
			<defs>
				<rect id="SVGID_29_" y="187.55" width="512" height="136.91"/>
			</defs>
			<clipPath id="SVGID_30_">
				<use xlink:href="#SVGID_29_"  style="overflow:visible;"/>
			</clipPath>
			<rect id="XMLID_26_" x="444.67" y="278.44" class="st14" width="6.31" height="44.89"/>
		</g>
		<g>
			<defs>
				<rect id="SVGID_31_" y="187.55" width="512" height="136.91"/>
			</defs>
			<clipPath id="SVGID_32_">
				<use xlink:href="#SVGID_31_"  style="overflow:visible;"/>
			</clipPath>
			<polygon id="XMLID_27_" class="st15" points="421.94,317.86 421.94,265.12 415.49,265.12 415.49,323.33 434.43,323.33 
				434.43,317.86 			"/>
		</g>
		<g>
			<defs>
				<rect id="SVGID_33_" y="187.55" width="512" height="136.91"/>
			</defs>
			<clipPath id="SVGID_34_">
				<use xlink:href="#SVGID_33_"  style="overflow:visible;"/>
			</clipPath>
			<path id="XMLID_28_" class="st16" d="M261.89,311.55l-0.84-27.07c4.91,2.81,8.84,6.17,8.84,13.05
				C269.75,305.94,264.84,309.44,261.89,311.55 M275.36,297.24c0-10.94-11.36-18.94-19.64-18.94c0,0,0,0.14,0.14,0.28v44.47h6.31
				l-0.28-9.54l0,0l6.31,9.54h5.89c0,0-4.21-6.59-6.31-9.82C269.61,311.27,275.36,308.18,275.36,297.24"/>
		</g>
		<g>
			<defs>
				<rect id="SVGID_35_" y="187.55" width="512" height="136.91"/>
			</defs>
			<clipPath id="SVGID_36_">
				<use xlink:href="#SVGID_35_"  style="overflow:visible;"/>
			</clipPath>
			<path id="XMLID_31_" class="st17" d="M245.34,263.57c-13.05,3.93-23.99,16.41-23.99,30.16c0,12.34,9.54,26.51,23.99,29.88v-5.47
				c-7.57-3.23-18.66-10.94-18.66-24.41c0-13.75,12.48-21.6,18.66-24.41V263.57z"/>
		</g>
		<g>
			<defs>
				<rect id="SVGID_37_" y="187.55" width="512" height="136.91"/>
			</defs>
			<clipPath id="SVGID_38_">
				<use xlink:href="#SVGID_37_"  style="overflow:visible;"/>
			</clipPath>
			<path id="XMLID_32_" class="st18" d="M307.76,313.09c0,7.15-4.63,10.66-10.66,10.66c-6.17,0-10.8-3.65-10.8-10.66v-34.65h6.31
				v35.91c0,2.38,1.96,4.35,4.35,4.35s4.35-1.96,4.35-4.35v-35.91h6.31v34.65H307.76z"/>
		</g>
		<g>
			<defs>
				<rect id="SVGID_39_" y="187.55" width="512" height="136.91"/>
			</defs>
			<clipPath id="SVGID_40_">
				<use xlink:href="#SVGID_39_"  style="overflow:visible;"/>
			</clipPath>
			<path id="XMLID_33_" class="st19" d="M351.11,277.32c-5.19,2.38-12.34,6.03-12.34,13.19c0,9.4,11.08,14.17,11.08,21.46
				c0,3.09-4.35,5.47-9.96,7.86c0.84,1.68,2.52,4.77,2.52,4.77c6.59-3.23,12.91-6.17,12.91-12.06c0-11.08-10.94-15.01-10.94-21.74
				c0-5.33,5.19-7.29,8.84-8.84C352.93,280.97,351.11,277.32,351.11,277.32"/>
		</g>
		<g>
			<defs>
				<rect id="SVGID_41_" y="187.55" width="512" height="136.91"/>
			</defs>
			<clipPath id="SVGID_42_">
				<use xlink:href="#SVGID_41_"  style="overflow:visible;"/>
			</clipPath>
			<polygon id="XMLID_34_" class="st20" points="478.61,278.44 478.61,295 462.9,276.76 462.9,323.33 469.22,323.33 469.22,293.17 
				478.61,303.55 478.61,323.33 484.93,323.33 484.93,278.44 			"/>
		</g>
	</g>
</g>
</svg>
