<svg version="1.1" id="_x37__x5F_Final" xmlns:x="ns_extend;" xmlns:i="ns_ai;" xmlns:graph="ns_graphs;" xmlns="http://www.w3.org/2000/svg" xmlns:xlink="http://www.w3.org/1999/xlink" x="0px" y="0px" viewBox="0 0 77 91" style="enable-background:new 0 0 77 91;" xml:space="preserve">
 <g>
  <g>
   <g>
    <path fill="#FFFFFF" d="M73.9,27c4.5-17.8-7.8-19.7-12.6-19c-0.2,0-0.2,0-0.5,0C55,3.1,48.1,0,40.3,0C16.3,0,0,20.4,0,45.5
				S16.1,91,40.3,91C60.7,91,77,70.6,77,45.5C77.2,38.9,76,32.7,73.9,27z">
    </path>
   </g>
   <path fill="#1A2857" d="M70.8,23.5L70.8,23.5c-0.9-2.1-1.9-3.3-2.1-3.6c-0.2-0.2-0.5,0-0.7,0.2c-6.9,10.2-10.4,21.3-12.1,30.6
			c-0.5,2.1-0.7,4.5-0.9,6.4c-0.2,1.9-0.5,1.4-0.5,0.2c0-2.1,0.2-3.6,0.5-5.4c0,0,0.2-2.4,0.5-3.3C58,29.4,65.6,19,65.6,19l0,0
			c0.2-0.2,0-0.7-0.2-0.7c-0.9-0.2-2.6-0.5-3.6-0.5c-1.4,0-2.8,0.2-4.5,0.5c-11.8,2.4-22.5,14-26.8,18c-2.8,2.6-5.4,5.4-8.1,8.3
			c-2.4,2.6-4.7,5.4-6.9,8.3c-0.5,0.7-0.9,1.2-1.4,1.9c-0.2,0.2-1.9,2.4-3.8,5c-1.2-4.5-1.9-9.2-1.9-14C8.5,22.7,23,4,40.7,4
			c6.2,0,11.8,2.4,16.8,6.2c-0.2,0-0.5,0.2-0.7,0.2h-0.2c0,0,0,0-0.2,0h-0.5c-6.9,2.1-14.5,6.4-21.8,13c-0.7-0.2-1.2-0.2-1.9-0.2H32
			c-3.8,0-8.3,2.1-10.9,4.3c-0.9,0.7-1.4,1.4-1.7,2.1v3.1v0.2c0.5-0.5,2.1-2.1,3.8-3.1c2.4-1.4,5-2.4,7.3-2.6
			c-1.2,1.2-2.4,2.4-3.6,3.8c-3.6,1.2-6.4,3.6-7.6,5.2v-3.3l0,0c-1.2,0.5-4.5,2.4-5,4c-0.2,0.5-0.2,1.4-0.2,1.9c0,0.2,0,0.2,0,0.2
			c0,0.2,0,1.2,0,1.2s2.4-3.3,5.2-4v3.1c-1.9,0.7-4.3,3.1-4.7,3.8c0,0.2,0,3.3,0,5c-1.4,2.4-2.8,5-4,7.6c1.7-2.6,3.6-5,5.2-7.1
			c1.9-2.4,3.6-5,5.4-7.3c0.7-1.2,1.7-2.1,2.4-3.1c0.2-0.5,0.7-0.7,0.9-1.2c2.1-2.4,4.3-4.7,6.6-7.1c0.9-0.9,1.9-1.9,2.8-2.8
			c0.5-0.5,0.9-0.9,1.4-1.2c0.5-0.2,0.7-0.7,1.2-0.9c1.7-1.4,3.3-2.6,5-4c1.9-1.4,3.6-2.6,5.4-3.8c3.6-2.1,7.1-3.6,11.1-4.5
			c0.2,0,0.5,0,0.7-0.2c0.7-0.2,1.2-0.2,1.9-0.2c2.8-0.5,5.9-0.2,8.5,1.4c0.7,0.5,1.4,0.9,1.9,1.7c0.5,0.5,0.7,0.9,0.9,1.4
			c0.7,1.2,0.9,2.8,1.2,4.5c0,0.5,0,1.2,0,1.7c0.2-1.2,0.2-2.4,0.2-3.6c0-1.4-0.7-3.3-1.2-4.5c-2.1-4.3-7.1-5.9-11.8-5.2
			c-0.2,0-0.2,0-0.5,0c-5.7-5-12.6-8.1-19.9-8.1C17.5,1.4,2.4,21.3,2.4,45.5s15.2,44.1,37.9,44.1c19.2,0,34.8-19.9,34.8-44.1
			C75.6,37.4,73.7,29.9,70.8,23.5z M22.5,79.8c2.4,0.5,4.5,0.9,6.6,1.2c5,0.5,12.1-0.7,17.5,0.2c2.4,0.5,4.3,1.7,5.4,3.1
			c-3.6,1.9-7.6,2.8-11.6,2.8C34.1,86.9,27.7,84.3,22.5,79.8z M59,75.1c-0.5-4.7-0.5-9.5,0-14.2c0.7-9.5,3.6-19,9.2-26.8
			c0-0.2,0.2-0.5,0.5-0.7l0,0l0.2-0.2c0,0-0.2,0.2,1.4-1.9c0.2-0.2,0.2-0.2,0.5-0.5l0,0c1.4,4.5,2.1,9.5,2.1,14.7
			c0,15.2-6.2,28.2-15.4,35.5c-3.1-3.1-6.6-4-12.8-4.3c-6.2,0-12.3,1.9-21.1,0.9c-1.2-0.2-2.6-0.5-4.3-0.9c-0.7-0.9-1.4-1.7-2.1-2.6
			c1.7,0.5,3.6,0.9,5.2,1.2c9.7,0.9,17.1-1.2,23.2-1.4c6.4,0,10.2,0.9,13.3,3.3C59,76.5,59,75.8,59,75.1">
   </path>
  </g>
 </g>
</svg>