<svg width="12" height="12" viewBox="0 0 12 12" fill="none" xmlns="http://www.w3.org/2000/svg"><path d="M11.545 4.15458H7.60412L6.40718 0.306372C6.37662 0.216535 6.32118 0.138974 6.24836 0.0841795C6.17553 0.0293847 6.08884 0 6 0C5.91116 0 5.82447 0.0293847 5.75164 0.0841795C5.67882 0.138974 5.62338 0.216535 5.59282 0.306372L4.39588 4.15458H0.429003C0.31546 4.15484 0.206624 4.20347 0.12625 4.28984C0.0458756 4.37621 0.000490428 4.49332 2.23405e-07 4.6156C-2.88284e-05 4.64187 0.00277566 4.66804 0.00835736 4.69361C0.0139887 4.75884 0.0329834 4.82191 0.0639732 4.87829C0.0949629 4.93466 0.137176 4.98293 0.187573 5.01963L3.42552 7.47776L2.18308 11.369C2.15384 11.4612 2.15236 11.561 2.17887 11.6542C2.20538 11.7474 2.25853 11.8292 2.33073 11.888C2.39778 11.9526 2.48252 11.9919 2.57216 12C2.66812 11.9936 2.76062 11.959 2.83959 11.9L5.99675 9.47386L9.15391 11.9C9.23231 11.9603 9.32514 11.995 9.42134 12C9.51056 11.9937 9.59495 11.9541 9.65999 11.888C9.73287 11.8298 9.78654 11.7481 9.81311 11.6546C9.83968 11.5612 9.83776 11.4611 9.80763 11.369L8.57169 7.47776L11.7827 5.00062L11.8607 4.92862C11.9407 4.84742 11.9902 4.73748 12 4.6196C11.9943 4.49394 11.9438 4.37549 11.859 4.28888C11.7743 4.20227 11.6618 4.15417 11.545 4.15458Z" fill="#022658"></path></svg>