<?xml version="1.0" encoding="UTF-8"?>
<svg version="1.1" viewBox="0 0 57.98 24.37" xmlns="http://www.w3.org/2000/svg" >
<g transform="translate(-209.23 -426.36)">
<g transform="matrix(1.25 0 0 -1.25 244.18 435.85)">
<path d="m0 0v6.795h-9.541v-8.045s0.85 0.785 2.019 0.862c1.671 0.11 2.362-0.706 3.947-0.976 1.939-0.33 3.206 0.861 3.502 1.206 0.073 0.089 0.061 0.112 0.07 0.132l3e-3 0.026" fill="#3d90c3"/>
</g>
<g transform="matrix(1.25 0 0 -1.25 233.38 435.59)">
<path d="m0 0c0.32 0.168 0.604 0.254 1.278 0.293 1.627 0.094 2.234-0.51 3.774-0.748 1.209-0.188 1.891 0.082 2.406 0.412 0.273 0.175 0.201 0.129 0.344 0.248 0.127 0.106 0.158 0.18 0.139 0.253-5e-3 0.023-0.029 0.023-0.075-8e-3 -0.036-0.023-0.106-0.07-0.106-0.07-1.211-0.845-2.798-0.348-4.185 0.087-1.291 0.405-2.875 0.227-3.593-0.284 0 0-0.085-0.055-0.145-0.147-0.02-0.03-0.066-0.154-9e-3 -0.128 0.065 0.031 0.119 0.068 0.172 0.092m1.884 2.103-1.372 1.802v-1.802h-0.616v2.833h0.575l1.328-1.744v1.744h0.616v-2.833h-0.531" fill="#fff"/>
</g>
<g transform="matrix(1.25 0 0 -1.25 238.72 433.02)">
<path d="m0 0c-0.834 0-1.453 0.643-1.453 1.457v9e-3c0 0.805 0.607 1.465 1.477 1.465 0.534 0 0.854-0.178 1.118-0.437l-0.397-0.458c-0.219 0.199-0.442 0.32-0.725 0.32-0.477 0-0.82-0.397-0.82-0.882v-8e-3c0-0.486 0.334-0.891 0.82-0.891 0.324 0 0.522 0.129 0.745 0.332l0.397-0.401c-0.292-0.312-0.616-0.506-1.162-0.506m1.574 0.049v2.834h0.624v-2.267h1.413v-0.567h-2.037" fill="#fff"/>
</g>
<g transform="matrix(1.25 0 0 -1.25 213.98 445.09)">
<path d="m0 0-2.072 2.72v-2.72h-0.928v4.278h0.867l2.005-2.634v2.634h0.928v-4.278h-0.8m5.812 2.139c0 0.734-0.538 1.345-1.295 1.345s-1.283-0.6-1.283-1.333v-0.012c0-0.734 0.538-1.344 1.296-1.344 0.756 0 1.282 0.599 1.282 1.332v0.012zm-1.295-2.212c-1.32 0-2.267 0.984-2.267 2.2v0.012c0 1.216 0.96 2.213 2.28 2.213 1.319 0 2.266-0.985 2.266-2.201v-0.012c0-1.216-0.959-2.212-2.279-2.212m6.226 2.89c0 0.403-0.281 0.611-0.739 0.611h-0.936v-1.229h0.954c0.458 0 0.721 0.245 0.721 0.606v0.012zm-0.018-2.818-0.917 1.37h-0.74v-1.37h-0.94v4.278h1.955c1.009 0 1.614-0.531 1.614-1.411v-0.013c0-0.69-0.373-1.124-0.917-1.326l1.045-1.528h-1.1m7.04-0.03h-0.819l-0.965 2.8-0.966-2.8h-0.818l-1.46 4.309h1.008l0.886-2.897 0.958 2.909h0.807l0.959-2.909 0.886 2.897h0.984l-1.46-4.309m2.588 0.031v4.278h3.227v-0.837h-2.292v-0.868h2.017v-0.837h-2.017v-0.899h2.322v-0.837h-3.257m6.584-0.074c-1.332 0-2.248 0.935-2.248 2.2v0.012c0 1.217 0.946 2.213 2.242 2.213 0.77 0 1.235-0.208 1.681-0.587l-0.593-0.715c-0.33 0.275-0.623 0.434-1.119 0.434-0.684 0-1.228-0.605-1.228-1.332v-0.013c0-0.782 0.538-1.356 1.296-1.356 0.342 0 0.648 0.086 0.886 0.256v0.612h-0.947v0.812h1.858v-1.858c-0.44-0.372-1.045-0.678-1.828-0.678m3.296 0.074h0.94116v4.278h-0.94116v-4.278zm4.353 3.177-0.568-1.387h1.135l-0.567 1.387zm1.294-3.178-0.481 0.96h-1.717l-0.392-0.96h-0.959l1.833 4.309h0.867l1.833-4.309h-0.984m5.103 1e-3 -2.072 2.72v-2.72h-0.928v4.278h0.867l2.004-2.634v2.634h0.929v-4.278h-0.8m-31.908-3.704c-0.63 0-1.097 0.486-1.097 1.1v6e-3c0 0.608 0.458 1.107 1.115 1.107 0.404 0 0.645-0.135 0.844-0.33l-0.3-0.346c-0.164 0.15-0.333 0.242-0.547 0.242-0.36 0-0.62-0.3-0.62-0.667v-6e-3c0-0.366 0.254-0.672 0.62-0.672 0.245 0 0.395 0.097 0.563 0.25l0.299-0.302c-0.22-0.236-0.464-0.382-0.877-0.382" fill="#231f20"/>
</g>
<path d="m228.91 447.92c0-0.2525-0.175-0.3825-0.4625-0.3825h-0.58375v0.76875h0.59625c0.28625 0 0.45-0.1525 0.45-0.37875zm-0.0112 1.7612-0.5725-0.855h-0.4625v0.855h-0.58875v-2.6738h1.2225c0.63125 0 1.0088 0.33125 1.0088 0.8825v6e-3c0 0.4325-0.2325 0.70375-0.5725 0.83l0.6525 0.955h-0.6875m2.6362 0.0425c-0.71875 0-1.1575-0.40125-1.1575-1.1888v-1.5275h0.5875v1.5125c0 0.43625 0.21875 0.66125 0.5775 0.66125s0.57625-0.2175 0.57625-0.6425v-1.5312h0.58875v1.5088c0 0.81-0.455 1.2075-1.1725 1.2075m2.1812-0.0412h0.58869v-2.675h-0.58869zm2.5888 0.0375c-0.405 0-0.81375-0.14125-1.135-0.4275l0.3475-0.4163c0.24125 0.19875 0.49375 0.325 0.79875 0.325 0.24125 0 0.38625-0.0962 0.38625-0.2525v-7e-3c0-0.14875-0.0913-0.22625-0.53875-0.34-0.53875-0.1375-0.88625-0.2875-0.88625-0.81875v-7e-3c0-0.485 0.39-0.805 0.93625-0.805 0.38875 0 0.7225 0.12125 0.99375 0.33875l-0.30625 0.44375c-0.2375-0.165-0.47-0.26375-0.695-0.26375-0.22625 0-0.345 0.10375-0.345 0.2325v9e-3c0 0.175 0.115 0.2325 0.5775 0.35125 0.5425 0.14125 0.84875 0.33625 0.84875 0.8025v7e-3c0 0.53125-0.40625 0.82875-0.9825 0.82875m1.875-0.0375v-2.675h2.0175v0.52375h-1.4338v0.5425h1.2612v0.52375h-1.2612v0.56125h1.4525v0.52375h-2.0362m4.47 0v-2.675h0.58875v2.14h1.3338v0.535h-1.9225m2.7725 0h0.58899v-2.675h-0.58899zm3.5138 0-1.2938-1.7v1.7h-0.58125v-2.675h0.54375l1.2512 1.6475v-1.6475h0.58v2.675h-0.5m1.5238 0v-2.675h2.0175v0.52375h-1.4325v0.5425h1.2612v0.52375h-1.2612v0.56125h1.4525v0.52375h-2.0375" fill="#231f20"/>
</g>
</svg>
