<?xml version="1.0" encoding="UTF-8"?>
<svg xmlns="http://www.w3.org/2000/svg" width="1200" height="780" viewBox="0 0 1200 780" role="img" aria-label="Southern Caribbean static cruise map">

  <defs>
    <linearGradient id="water" x1="0" y1="0" x2="1" y2="1">
      <stop offset="0" stop-color="#BFE4EA"/>
      <stop offset="1" stop-color="#9BD2DD"/>
    </linearGradient>
    <filter id="softShadow" x="-20%" y="-20%" width="140%" height="140%">
      <feDropShadow dx="0" dy="10" stdDeviation="14" flood-color="#23445A" flood-opacity="0.10"/>
    </filter>
  </defs>
<rect width="1200" height="780" fill="#BFE4EA"/>
<line x1="58.0" y1="58" x2="58.0" y2="722" stroke="#ffffff" stroke-opacity="0.22" stroke-width="1"/>
<line x1="193.5" y1="58" x2="193.5" y2="722" stroke="#ffffff" stroke-opacity="0.22" stroke-width="1"/>
<line x1="329.0" y1="58" x2="329.0" y2="722" stroke="#ffffff" stroke-opacity="0.22" stroke-width="1"/>
<line x1="464.5" y1="58" x2="464.5" y2="722" stroke="#ffffff" stroke-opacity="0.22" stroke-width="1"/>
<line x1="600.0" y1="58" x2="600.0" y2="722" stroke="#ffffff" stroke-opacity="0.22" stroke-width="1"/>
<line x1="735.5" y1="58" x2="735.5" y2="722" stroke="#ffffff" stroke-opacity="0.22" stroke-width="1"/>
<line x1="871.0" y1="58" x2="871.0" y2="722" stroke="#ffffff" stroke-opacity="0.22" stroke-width="1"/>
<line x1="1006.5" y1="58" x2="1006.5" y2="722" stroke="#ffffff" stroke-opacity="0.22" stroke-width="1"/>
<line x1="1142.0" y1="58" x2="1142.0" y2="722" stroke="#ffffff" stroke-opacity="0.22" stroke-width="1"/>
<line x1="58" y1="58.0" x2="1142" y2="58.0" stroke="#ffffff" stroke-opacity="0.22" stroke-width="1"/>
<line x1="58" y1="190.8" x2="1142" y2="190.8" stroke="#ffffff" stroke-opacity="0.22" stroke-width="1"/>
<line x1="58" y1="323.6" x2="1142" y2="323.6" stroke="#ffffff" stroke-opacity="0.22" stroke-width="1"/>
<line x1="58" y1="456.4" x2="1142" y2="456.4" stroke="#ffffff" stroke-opacity="0.22" stroke-width="1"/>
<line x1="58" y1="589.2" x2="1142" y2="589.2" stroke="#ffffff" stroke-opacity="0.22" stroke-width="1"/>
<line x1="58" y1="722.0" x2="1142" y2="722.0" stroke="#ffffff" stroke-opacity="0.22" stroke-width="1"/>
<text x="1128" y="748" fill="#ffffff" fill-opacity="0.58" font-size="24" font-family="Helvetica" text-anchor="end">8.8° to 17.9°</text>
<path d="M 561.6 450.7 L 552.5 471.6 L 527.4 486.9 L 493.2 492.6 L 459.0 486.9 L 433.9 471.6 L 424.7 450.7 L 433.9 429.7 L 459.0 414.4 L 493.2 408.8 L 530.8 410.8 L 558.3 427.7 Z" fill="#EDF0E4" stroke="#DCE3E8" stroke-width="2" filter="url(#softShadow)"/>
<path d="M 332.1 610.5 L 320.4 637.2 L 288.5 656.7 L 244.9 663.9 L 201.3 656.7 L 169.3 637.2 L 157.6 610.5 L 169.3 583.8 L 201.3 564.3 L 244.9 557.1 L 284.5 568.5 L 313.5 586.3 Z" fill="#E5EBD9" stroke="#DCE3E8" stroke-width="2" filter="url(#softShadow)"/>
<path d="M 1023.9 406.4 L 1014.7 427.5 L 989.5 442.9 L 955.1 448.5 L 920.7 442.9 L 895.5 427.5 L 886.3 406.4 L 895.5 385.4 L 920.7 370.0 L 955.1 364.3 L 998.5 360.5 L 1030.2 379.9 Z" fill="#EDF0E4" stroke="#DCE3E8" stroke-width="2" filter="url(#softShadow)"/>
<path d="M 944.8 486.1 L 933.4 512.0 L 902.4 531.0 L 860.1 537.9 L 817.7 531.0 L 786.7 512.0 L 775.3 486.1 L 786.7 460.2 L 817.7 441.2 L 860.1 434.3 L 904.1 439.4 L 936.3 459.2 Z" fill="#E5EBD9" stroke="#DCE3E8" stroke-width="2" filter="url(#softShadow)"/>
<path d="M 641.3 478.8 L 631.6 501.0 L 605.0 517.3 L 568.8 523.2 L 532.5 517.3 L 506.0 501.0 L 496.2 478.8 L 506.0 456.7 L 532.5 440.4 L 568.8 434.5 L 611.7 433.4 L 643.1 452.6 Z" fill="#EDF0E4" stroke="#DCE3E8" stroke-width="2" filter="url(#softShadow)"/>
<path d="M 612.2 477.2 L 602.1 500.3 L 574.6 517.1 L 536.9 523.3 L 499.2 517.1 L 471.7 500.3 L 461.6 477.2 L 471.7 454.2 L 499.2 437.3 L 536.9 431.2 L 579.6 432.0 L 610.9 451.1 Z" fill="#E5EBD9" stroke="#DCE3E8" stroke-width="2" filter="url(#softShadow)"/>
<path d="M 975.6 266.9 L 963.3 295.1 L 929.6 315.7 L 883.5 323.3 L 837.5 315.7 L 803.8 295.1 L 791.4 266.9 L 803.8 238.7 L 837.5 218.1 L 883.5 210.5 L 930.9 216.7 L 965.6 237.9 Z" fill="#EDF0E4" stroke="#DCE3E8" stroke-width="2" filter="url(#softShadow)"/>
<path d="M 942.3 169.5 L 932.6 191.6 L 906.2 207.8 L 870.0 213.7 L 833.8 207.8 L 807.4 191.6 L 797.7 169.5 L 807.4 147.4 L 833.8 131.2 L 870.0 125.2 L 909.9 127.3 L 939.0 145.1 Z" fill="#E5EBD9" stroke="#DCE3E8" stroke-width="2" filter="url(#softShadow)"/>
<path d="M 955.3 402.7 L 945.7 424.6 L 919.5 440.6 L 883.7 446.5 L 847.9 440.6 L 821.7 424.6 L 812.1 402.7 L 821.7 380.8 L 847.9 364.7 L 883.7 358.9 L 926.8 356.9 L 958.4 376.3 Z" fill="#EDF0E4" stroke="#DCE3E8" stroke-width="2" filter="url(#softShadow)"/>
<path d="M 411.7 488.1 C 493.2 422.7 521.2 480.7 612.5 486.1" fill="none" stroke="#FFFFFF" stroke-width="5" stroke-linecap="round" stroke-opacity="0.72"/>
<path d="M 451.2 430.7 L 547.2 482.7" fill="none" stroke="#D8C9AA" stroke-width="3" stroke-linecap="round" stroke-opacity="0.72"/>
<path d="M 169.1 640.1 C 244.9 582.5 272.9 640.5 355.6 637.8" fill="none" stroke="#FFFFFF" stroke-width="5" stroke-linecap="round" stroke-opacity="0.72"/>
<path d="M 877.5 438.5 C 955.1 378.4 983.1 436.4 1068.6 436.3" fill="none" stroke="#FFFFFF" stroke-width="5" stroke-linecap="round" stroke-opacity="0.72"/>
<path d="M 805.7 486.5 C 860.1 458.1 888.1 516.1 939.0 483.4" fill="none" stroke="#FFFFFF" stroke-width="5" stroke-linecap="round" stroke-opacity="0.72"/>
<path d="M 818.1 466.1 L 914.1 518.1" fill="none" stroke="#D8C9AA" stroke-width="3" stroke-linecap="round" stroke-opacity="0.72"/>
<path d="M 488.9 514.0 C 568.8 450.8 596.8 508.8 685.7 511.9" fill="none" stroke="#FFFFFF" stroke-width="5" stroke-linecap="round" stroke-opacity="0.72"/>
<path d="M 481.8 478.7 C 536.9 449.2 564.9 507.2 616.9 475.5" fill="none" stroke="#FFFFFF" stroke-width="5" stroke-linecap="round" stroke-opacity="0.72"/>
<path d="M 794.6 278.5 C 876.5 212.5 904.5 270.5 996.5 276.5" fill="none" stroke="#FFFFFF" stroke-width="5" stroke-linecap="round" stroke-opacity="0.72"/>
<path d="M 834.5 220.5 L 930.5 272.5" fill="none" stroke="#D8C9AA" stroke-width="3" stroke-linecap="round" stroke-opacity="0.72"/>
<path d="M 811.4 327.3 C 890.5 265.2 918.5 323.2 1006.2 325.1" fill="none" stroke="#FFFFFF" stroke-width="5" stroke-linecap="round" stroke-opacity="0.72"/>
<path d="M 829.8 150.6 C 870.0 141.5 898.0 199.5 927.8 146.8" fill="none" stroke="#FFFFFF" stroke-width="5" stroke-linecap="round" stroke-opacity="0.72"/>
<path d="M 845.4 381.2 C 883.7 374.7 911.7 432.7 938.6 377.4" fill="none" stroke="#FFFFFF" stroke-width="5" stroke-linecap="round" stroke-opacity="0.72"/>
<path d="M 841.7 382.7 L 937.7 434.7" fill="none" stroke="#D8C9AA" stroke-width="3" stroke-linecap="round" stroke-opacity="0.72"/>
<path d="M 86 654 C 250 550 362 618 520 525 S 840 434 1105 548" fill="none" stroke="#FFFFFF" stroke-opacity="0.42" stroke-width="5" stroke-dasharray="18 18" stroke-linecap="round"/>
<text x="56" y="64" fill="#243349" font-size="34" font-family="Helvetica" font-weight="800">Southern Caribbean</text>
<text x="56" y="102" fill="#637083" font-size="22" font-family="Helvetica">Static CruiseKit planning basemap</text>
<text x="1144" y="724" fill="#637083" font-size="20" font-family="Helvetica" text-anchor="end">CruiseKit static map</text>
</svg>