<?xml version="1.0" encoding="UTF-8"?>
<svg xmlns="http://www.w3.org/2000/svg" width="2400" height="1560" viewBox="0 0 2400 1560" role="img" aria-label="Alaska static cruise map">

  <defs>
    <linearGradient id="water" x1="0" y1="0" x2="1" y2="1">
      <stop offset="0" stop-color="#BFE4EA"/>
      <stop offset="1" stop-color="#9BD2DD"/>
    </linearGradient>
    <filter id="softShadow" x="-20%" y="-20%" width="140%" height="140%">
      <feDropShadow dx="0" dy="10" stdDeviation="14" flood-color="#23445A" flood-opacity="0.10"/>
    </filter>
  </defs>
<rect width="2400" height="1560" fill="#BFE4EA"/>
<line x1="58.0" y1="58" x2="58.0" y2="1502" stroke="#ffffff" stroke-opacity="0.22" stroke-width="1"/>
<line x1="343.5" y1="58" x2="343.5" y2="1502" stroke="#ffffff" stroke-opacity="0.22" stroke-width="1"/>
<line x1="629.0" y1="58" x2="629.0" y2="1502" stroke="#ffffff" stroke-opacity="0.22" stroke-width="1"/>
<line x1="914.5" y1="58" x2="914.5" y2="1502" stroke="#ffffff" stroke-opacity="0.22" stroke-width="1"/>
<line x1="1200.0" y1="58" x2="1200.0" y2="1502" stroke="#ffffff" stroke-opacity="0.22" stroke-width="1"/>
<line x1="1485.5" y1="58" x2="1485.5" y2="1502" stroke="#ffffff" stroke-opacity="0.22" stroke-width="1"/>
<line x1="1771.0" y1="58" x2="1771.0" y2="1502" stroke="#ffffff" stroke-opacity="0.22" stroke-width="1"/>
<line x1="2056.5" y1="58" x2="2056.5" y2="1502" stroke="#ffffff" stroke-opacity="0.22" stroke-width="1"/>
<line x1="2342.0" y1="58" x2="2342.0" y2="1502" stroke="#ffffff" stroke-opacity="0.22" stroke-width="1"/>
<line x1="58" y1="58.0" x2="2342" y2="58.0" stroke="#ffffff" stroke-opacity="0.22" stroke-width="1"/>
<line x1="58" y1="346.8" x2="2342" y2="346.8" stroke="#ffffff" stroke-opacity="0.22" stroke-width="1"/>
<line x1="58" y1="635.6" x2="2342" y2="635.6" stroke="#ffffff" stroke-opacity="0.22" stroke-width="1"/>
<line x1="58" y1="924.4" x2="2342" y2="924.4" stroke="#ffffff" stroke-opacity="0.22" stroke-width="1"/>
<line x1="58" y1="1213.2" x2="2342" y2="1213.2" stroke="#ffffff" stroke-opacity="0.22" stroke-width="1"/>
<line x1="58" y1="1502.0" x2="2342" y2="1502.0" stroke="#ffffff" stroke-opacity="0.22" stroke-width="1"/>
<text x="2328" y="1528" fill="#ffffff" fill-opacity="0.58" font-size="24" font-family="Helvetica" text-anchor="end">45.0° to 64.2°</text>
<path d="M 542.3 309.5 L 531.3 334.6 L 501.3 353.0 L 460.3 359.7 L 419.2 353.0 L 389.2 334.6 L 378.2 309.5 L 389.2 284.4 L 419.2 266.0 L 460.3 259.3 L 506.5 260.5 L 540.4 281.2 Z" fill="#EDF0E4" stroke="#DCE3E8" stroke-width="2" filter="url(#softShadow)"/>
<path d="M 1383.4 498.0 L 1371.4 525.4 L 1338.6 545.4 L 1293.8 552.8 L 1249.0 545.5 L 1216.2 525.4 L 1204.2 498.0 L 1216.2 470.6 L 1249.0 450.5 L 1293.8 443.1 L 1327.1 462.7 L 1351.4 477.6 Z" fill="#E5EBD9" stroke="#DCE3E8" stroke-width="2" filter="url(#softShadow)"/>
<path d="M 1546.2 723.5 L 1534.1 751.1 L 1501.0 771.3 L 1455.9 778.7 L 1410.7 771.3 L 1377.7 751.1 L 1365.6 723.5 L 1377.7 695.9 L 1410.7 675.6 L 1455.9 668.2 L 1499.7 677.0 L 1531.8 696.7 Z" fill="#EDF0E4" stroke="#DCE3E8" stroke-width="2" filter="url(#softShadow)"/>
<path d="M 1331.8 409.7 L 1319.8 437.3 L 1286.7 457.6 L 1241.5 465.0 L 1196.4 457.6 L 1163.3 437.3 L 1151.2 409.7 L 1163.3 382.1 L 1196.4 361.9 L 1241.5 354.4 L 1285.7 362.9 L 1318.0 382.7 Z" fill="#E5EBD9" stroke="#DCE3E8" stroke-width="2" filter="url(#softShadow)"/>
<path d="M 1335.1 593.1 L 1322.4 622.0 L 1287.8 643.1 L 1240.6 650.9 L 1193.4 643.1 L 1158.8 622.0 L 1146.1 593.1 L 1158.8 564.2 L 1193.3 543.0 L 1240.6 535.2 L 1277.1 554.4 L 1303.8 570.7 Z" fill="#EDF0E4" stroke="#DCE3E8" stroke-width="2" filter="url(#softShadow)"/>
<path d="M 1326.3 511.0 L 1313.9 539.2 L 1280.1 559.9 L 1233.9 567.5 L 1187.7 559.9 L 1153.9 539.2 L 1141.5 511.0 L 1153.9 482.7 L 1187.7 462.0 L 1233.9 454.4 L 1281.5 460.6 L 1316.3 481.9 Z" fill="#E5EBD9" stroke="#DCE3E8" stroke-width="2" filter="url(#softShadow)"/>
<path d="M 2033.7 1250.5 L 2021.1 1279.3 L 1986.7 1300.3 L 1939.7 1308.0 L 1892.7 1300.3 L 1858.3 1279.3 L 1845.7 1250.5 L 1858.3 1221.8 L 1892.7 1200.7 L 1939.7 1193.0 L 1983.0 1204.6 L 2014.7 1224.0 Z" fill="#EDF0E4" stroke="#DCE3E8" stroke-width="2" filter="url(#softShadow)"/>
<path d="M 414.2 298.5 C 460.3 281.5 488.3 339.5 526.7 295.0" fill="none" stroke="#FFFFFF" stroke-width="5" stroke-linecap="round" stroke-opacity="0.72"/>
<path d="M 418.3 289.5 L 514.3 341.5" fill="none" stroke="#D8C9AA" stroke-width="3" stroke-linecap="round" stroke-opacity="0.72"/>
<path d="M 1219.0 526.2 C 1293.8 470.0 1321.8 528.0 1403.1 523.9" fill="none" stroke="#FFFFFF" stroke-width="5" stroke-linecap="round" stroke-opacity="0.72"/>
<path d="M 1412.4 709.1 C 1455.9 695.5 1483.9 753.5 1518.5 705.4" fill="none" stroke="#FFFFFF" stroke-width="5" stroke-linecap="round" stroke-opacity="0.72"/>
<path d="M 1184.7 413.4 C 1241.5 381.7 1269.5 439.7 1324.0 410.3" fill="none" stroke="#FFFFFF" stroke-width="5" stroke-linecap="round" stroke-opacity="0.72"/>
<path d="M 1199.5 389.7 L 1295.5 441.7" fill="none" stroke="#D8C9AA" stroke-width="3" stroke-linecap="round" stroke-opacity="0.72"/>
<path d="M 1165.6 621.5 C 1240.6 565.1 1268.6 623.1 1350.2 619.2" fill="none" stroke="#FFFFFF" stroke-width="5" stroke-linecap="round" stroke-opacity="0.72"/>
<path d="M 1176.6 515.4 C 1233.9 483.0 1261.9 541.0 1317.1 512.3" fill="none" stroke="#FFFFFF" stroke-width="5" stroke-linecap="round" stroke-opacity="0.72"/>
<path d="M 1899.3 1231.9 C 1939.7 1222.5 1967.7 1280.5 1997.8 1228.1" fill="none" stroke="#FFFFFF" stroke-width="5" stroke-linecap="round" stroke-opacity="0.72"/>
<path d="M 1897.7 1230.5 L 1993.7 1282.5" fill="none" stroke="#D8C9AA" stroke-width="3" stroke-linecap="round" stroke-opacity="0.72"/>
<path d="M 86 1434 C 250 1330 362 1398 520 1305 S 840 1214 1105 1328" fill="none" stroke="#FFFFFF" stroke-opacity="0.42" stroke-width="5" stroke-dasharray="18 18" stroke-linecap="round"/>
<text x="56" y="64" fill="#243349" font-size="34" font-family="Helvetica" font-weight="800">Alaska</text>
<text x="56" y="102" fill="#637083" font-size="22" font-family="Helvetica">Static CruiseKit planning basemap</text>
<text x="2344" y="1504" fill="#637083" font-size="20" font-family="Helvetica" text-anchor="end">CruiseKit static map</text>
</svg>