<?xml version="1.0" encoding="UTF-8"?>
<svg xmlns="http://www.w3.org/2000/svg" width="2400" height="1560" viewBox="0 0 2400 1560" role="img" aria-label="Homeports static cruise map">

  <defs>
    <linearGradient id="water" x1="0" y1="0" x2="1" y2="1">
      <stop offset="0" stop-color="#BFE4EA"/>
      <stop offset="1" stop-color="#9BD2DD"/>
    </linearGradient>
    <filter id="softShadow" x="-20%" y="-20%" width="140%" height="140%">
      <feDropShadow dx="0" dy="10" stdDeviation="14" flood-color="#23445A" flood-opacity="0.10"/>
    </filter>
  </defs>
<rect width="2400" height="1560" fill="#BFE4EA"/>
<line x1="58.0" y1="58" x2="58.0" y2="1502" stroke="#ffffff" stroke-opacity="0.22" stroke-width="1"/>
<line x1="343.5" y1="58" x2="343.5" y2="1502" stroke="#ffffff" stroke-opacity="0.22" stroke-width="1"/>
<line x1="629.0" y1="58" x2="629.0" y2="1502" stroke="#ffffff" stroke-opacity="0.22" stroke-width="1"/>
<line x1="914.5" y1="58" x2="914.5" y2="1502" stroke="#ffffff" stroke-opacity="0.22" stroke-width="1"/>
<line x1="1200.0" y1="58" x2="1200.0" y2="1502" stroke="#ffffff" stroke-opacity="0.22" stroke-width="1"/>
<line x1="1485.5" y1="58" x2="1485.5" y2="1502" stroke="#ffffff" stroke-opacity="0.22" stroke-width="1"/>
<line x1="1771.0" y1="58" x2="1771.0" y2="1502" stroke="#ffffff" stroke-opacity="0.22" stroke-width="1"/>
<line x1="2056.5" y1="58" x2="2056.5" y2="1502" stroke="#ffffff" stroke-opacity="0.22" stroke-width="1"/>
<line x1="2342.0" y1="58" x2="2342.0" y2="1502" stroke="#ffffff" stroke-opacity="0.22" stroke-width="1"/>
<line x1="58" y1="58.0" x2="2342" y2="58.0" stroke="#ffffff" stroke-opacity="0.22" stroke-width="1"/>
<line x1="58" y1="346.8" x2="2342" y2="346.8" stroke="#ffffff" stroke-opacity="0.22" stroke-width="1"/>
<line x1="58" y1="635.6" x2="2342" y2="635.6" stroke="#ffffff" stroke-opacity="0.22" stroke-width="1"/>
<line x1="58" y1="924.4" x2="2342" y2="924.4" stroke="#ffffff" stroke-opacity="0.22" stroke-width="1"/>
<line x1="58" y1="1213.2" x2="2342" y2="1213.2" stroke="#ffffff" stroke-opacity="0.22" stroke-width="1"/>
<line x1="58" y1="1502.0" x2="2342" y2="1502.0" stroke="#ffffff" stroke-opacity="0.22" stroke-width="1"/>
<text x="2328" y="1528" fill="#ffffff" fill-opacity="0.58" font-size="24" font-family="Helvetica" text-anchor="end">19.2° to 55.9°</text>
<path d="M 1861.6 1244.1 L 1847.3 1276.9 L 1808.1 1300.9 L 1754.6 1309.7 L 1701.1 1300.9 L 1661.9 1276.9 L 1647.5 1244.1 L 1661.9 1211.4 L 1701.1 1187.4 L 1754.6 1178.6 L 1800.5 1195.5 L 1834.0 1216.1 Z" fill="#EDF0E4" stroke="#DCE3E8" stroke-width="2" filter="url(#softShadow)"/>
<path d="M 1814.9 1145.1 L 1804.9 1168.1 L 1777.4 1184.8 L 1739.9 1191.0 L 1702.4 1184.8 L 1675.0 1168.1 L 1664.9 1145.1 L 1675.0 1122.2 L 1702.4 1105.4 L 1739.9 1099.3 L 1777.4 1105.4 L 1804.9 1122.2 Z" fill="#E5EBD9" stroke="#DCE3E8" stroke-width="2" filter="url(#softShadow)"/>
<path d="M 1388.6 1110.0 L 1378.5 1133.1 L 1350.9 1150.0 L 1313.2 1156.2 L 1275.5 1150.0 L 1247.9 1133.1 L 1237.8 1110.0 L 1247.9 1087.0 L 1275.5 1070.1 L 1313.2 1063.9 L 1357.6 1062.9 L 1390.2 1082.8 Z" fill="#EDF0E4" stroke="#DCE3E8" stroke-width="2" filter="url(#softShadow)"/>
<path d="M 1763.0 1163.8 L 1752.6 1187.6 L 1724.2 1205.0 L 1685.3 1211.4 L 1646.4 1205.0 L 1617.9 1187.6 L 1607.5 1163.8 L 1617.9 1140.0 L 1646.4 1122.6 L 1685.3 1116.2 L 1722.6 1124.2 L 1749.9 1141.0 Z" fill="#E5EBD9" stroke="#DCE3E8" stroke-width="2" filter="url(#softShadow)"/>
<path d="M 1550.5 1083.7 L 1537.8 1112.6 L 1503.2 1133.8 L 1456.0 1141.5 L 1408.7 1133.8 L 1374.1 1112.6 L 1361.4 1083.7 L 1374.1 1054.8 L 1408.7 1033.6 L 1456.0 1025.9 L 1492.8 1044.6 L 1519.9 1061.1 Z" fill="#EDF0E4" stroke="#DCE3E8" stroke-width="2" filter="url(#softShadow)"/>
<path d="M 1941.7 710.6 L 1931.1 735.0 L 1901.9 752.8 L 1862.1 759.3 L 1822.3 752.8 L 1793.1 735.0 L 1782.4 710.6 L 1793.1 686.2 L 1822.2 668.4 L 1862.1 661.9 L 1899.8 670.6 L 1927.4 687.5 Z" fill="#E5EBD9" stroke="#DCE3E8" stroke-width="2" filter="url(#softShadow)"/>
<path d="M 1939.2 807.4 L 1930.0 828.4 L 1904.9 843.8 L 1870.6 849.4 L 1836.3 843.8 L 1811.2 828.4 L 1802.0 807.4 L 1811.2 786.5 L 1836.3 771.1 L 1870.6 765.5 L 1910.6 765.1 L 1939.9 783.0 Z" fill="#EDF0E4" stroke="#DCE3E8" stroke-width="2" filter="url(#softShadow)"/>
<path d="M 2033.7 650.6 L 2021.1 679.3 L 1986.7 700.4 L 1939.7 708.1 L 1892.7 700.4 L 1858.3 679.4 L 1845.7 650.6 L 1858.3 621.9 L 1892.7 600.8 L 1939.7 593.1 L 1983.0 604.8 L 2014.6 624.2 Z" fill="#E5EBD9" stroke="#DCE3E8" stroke-width="2" filter="url(#softShadow)"/>
<path d="M 574.9 376.8 L 562.7 404.7 L 529.3 425.1 L 483.7 432.6 L 438.1 425.1 L 404.7 404.7 L 392.5 376.8 L 404.7 348.9 L 438.1 328.5 L 483.7 321.0 L 527.2 330.7 L 559.1 350.2 Z" fill="#EDF0E4" stroke="#DCE3E8" stroke-width="2" filter="url(#softShadow)"/>
<path d="M 552.2 309.5 L 539.8 337.6 L 506.2 358.2 L 460.3 365.7 L 414.3 358.2 L 380.7 337.6 L 368.3 309.5 L 380.7 281.4 L 414.3 260.8 L 460.3 253.3 L 500.2 267.2 L 529.4 285.1 Z" fill="#E5EBD9" stroke="#DCE3E8" stroke-width="2" filter="url(#softShadow)"/>
<path d="M 1594.7 1053.6 L 1584.3 1077.4 L 1555.8 1094.9 L 1516.8 1101.3 L 1477.8 1094.9 L 1449.3 1077.4 L 1438.8 1053.6 L 1449.3 1029.8 L 1477.8 1012.3 L 1516.8 1005.9 L 1556.9 1011.1 L 1586.3 1029.1 Z" fill="#EDF0E4" stroke="#DCE3E8" stroke-width="2" filter="url(#softShadow)"/>
<path d="M 1704.5 1243.6 C 1753.6 1222.5 1781.6 1280.5 1824.5 1240.2" fill="none" stroke="#FFFFFF" stroke-width="5" stroke-linecap="round" stroke-opacity="0.72"/>
<path d="M 1711.6 1230.5 L 1807.6 1282.5" fill="none" stroke="#D8C9AA" stroke-width="3" stroke-linecap="round" stroke-opacity="0.72"/>
<path d="M 1683.3 1262.6 C 1755.6 1209.8 1783.6 1267.8 1861.2 1260.2" fill="none" stroke="#FFFFFF" stroke-width="5" stroke-linecap="round" stroke-opacity="0.72"/>
<path d="M 1658.1 1182.9 C 1739.9 1117.1 1767.9 1175.1 1859.7 1181.0" fill="none" stroke="#FFFFFF" stroke-width="5" stroke-linecap="round" stroke-opacity="0.72"/>
<path d="M 1236.9 1140.3 C 1313.2 1082.0 1341.2 1140.0 1424.8 1138.1" fill="none" stroke="#FFFFFF" stroke-width="5" stroke-linecap="round" stroke-opacity="0.72"/>
<path d="M 1271.2 1090.0 L 1367.2 1142.0" fill="none" stroke="#D8C9AA" stroke-width="3" stroke-linecap="round" stroke-opacity="0.72"/>
<path d="M 1608.6 1194.6 C 1685.3 1135.8 1713.3 1193.8 1797.4 1192.4" fill="none" stroke="#FFFFFF" stroke-width="5" stroke-linecap="round" stroke-opacity="0.72"/>
<path d="M 1401.1 1084.8 C 1456.0 1055.7 1484.0 1113.7 1535.6 1081.6" fill="none" stroke="#FFFFFF" stroke-width="5" stroke-linecap="round" stroke-opacity="0.72"/>
<path d="M 1801.6 719.4 C 1862.1 682.6 1890.1 740.6 1950.1 716.5" fill="none" stroke="#FFFFFF" stroke-width="5" stroke-linecap="round" stroke-opacity="0.72"/>
<path d="M 1820.1 690.6 L 1916.1 742.6" fill="none" stroke="#D8C9AA" stroke-width="3" stroke-linecap="round" stroke-opacity="0.72"/>
<path d="M 1821.3 801.0 C 1870.6 779.4 1898.6 837.4 1942.0 797.6" fill="none" stroke="#FFFFFF" stroke-width="5" stroke-linecap="round" stroke-opacity="0.72"/>
<path d="M 1901.8 628.6 C 1939.7 622.6 1967.7 680.6 1994.1 624.7" fill="none" stroke="#FFFFFF" stroke-width="5" stroke-linecap="round" stroke-opacity="0.72"/>
<path d="M 416.9 394.2 C 483.7 348.8 511.7 406.8 581.2 391.6" fill="none" stroke="#FFFFFF" stroke-width="5" stroke-linecap="round" stroke-opacity="0.72"/>
<path d="M 441.7 356.8 L 537.7 408.8" fill="none" stroke="#D8C9AA" stroke-width="3" stroke-linecap="round" stroke-opacity="0.72"/>
<path d="M 393.3 327.0 C 460.3 281.5 488.3 339.5 557.8 324.4" fill="none" stroke="#FFFFFF" stroke-width="5" stroke-linecap="round" stroke-opacity="0.72"/>
<path d="M 1457.9 1060.2 C 1516.8 1025.6 1544.8 1083.6 1602.4 1057.2" fill="none" stroke="#FFFFFF" stroke-width="5" stroke-linecap="round" stroke-opacity="0.72"/>
<path d="M 86 1434 C 250 1330 362 1398 520 1305 S 840 1214 1105 1328" fill="none" stroke="#FFFFFF" stroke-opacity="0.42" stroke-width="5" stroke-dasharray="18 18" stroke-linecap="round"/>
<text x="56" y="64" fill="#243349" font-size="34" font-family="Helvetica" font-weight="800">Homeports</text>
<text x="56" y="102" fill="#637083" font-size="22" font-family="Helvetica">Static CruiseKit planning basemap</text>
<text x="2344" y="1504" fill="#637083" font-size="20" font-family="Helvetica" text-anchor="end">CruiseKit static map</text>
</svg>