<?xml version="1.0" encoding="UTF-8"?>
<svg xmlns="http://www.w3.org/2000/svg" width="2400" height="1560" viewBox="0 0 2400 1560" role="img" aria-label="Southern Caribbean static cruise map">

  <defs>
    <linearGradient id="water" x1="0" y1="0" x2="1" y2="1">
      <stop offset="0" stop-color="#BFE4EA"/>
      <stop offset="1" stop-color="#9BD2DD"/>
    </linearGradient>
    <filter id="softShadow" x="-20%" y="-20%" width="140%" height="140%">
      <feDropShadow dx="0" dy="10" stdDeviation="14" flood-color="#23445A" flood-opacity="0.10"/>
    </filter>
  </defs>
<rect width="2400" height="1560" fill="#BFE4EA"/>
<line x1="58.0" y1="58" x2="58.0" y2="1502" stroke="#ffffff" stroke-opacity="0.22" stroke-width="1"/>
<line x1="343.5" y1="58" x2="343.5" y2="1502" stroke="#ffffff" stroke-opacity="0.22" stroke-width="1"/>
<line x1="629.0" y1="58" x2="629.0" y2="1502" stroke="#ffffff" stroke-opacity="0.22" stroke-width="1"/>
<line x1="914.5" y1="58" x2="914.5" y2="1502" stroke="#ffffff" stroke-opacity="0.22" stroke-width="1"/>
<line x1="1200.0" y1="58" x2="1200.0" y2="1502" stroke="#ffffff" stroke-opacity="0.22" stroke-width="1"/>
<line x1="1485.5" y1="58" x2="1485.5" y2="1502" stroke="#ffffff" stroke-opacity="0.22" stroke-width="1"/>
<line x1="1771.0" y1="58" x2="1771.0" y2="1502" stroke="#ffffff" stroke-opacity="0.22" stroke-width="1"/>
<line x1="2056.5" y1="58" x2="2056.5" y2="1502" stroke="#ffffff" stroke-opacity="0.22" stroke-width="1"/>
<line x1="2342.0" y1="58" x2="2342.0" y2="1502" stroke="#ffffff" stroke-opacity="0.22" stroke-width="1"/>
<line x1="58" y1="58.0" x2="2342" y2="58.0" stroke="#ffffff" stroke-opacity="0.22" stroke-width="1"/>
<line x1="58" y1="346.8" x2="2342" y2="346.8" stroke="#ffffff" stroke-opacity="0.22" stroke-width="1"/>
<line x1="58" y1="635.6" x2="2342" y2="635.6" stroke="#ffffff" stroke-opacity="0.22" stroke-width="1"/>
<line x1="58" y1="924.4" x2="2342" y2="924.4" stroke="#ffffff" stroke-opacity="0.22" stroke-width="1"/>
<line x1="58" y1="1213.2" x2="2342" y2="1213.2" stroke="#ffffff" stroke-opacity="0.22" stroke-width="1"/>
<line x1="58" y1="1502.0" x2="2342" y2="1502.0" stroke="#ffffff" stroke-opacity="0.22" stroke-width="1"/>
<text x="2328" y="1528" fill="#ffffff" fill-opacity="0.58" font-size="24" font-family="Helvetica" text-anchor="end">8.8° to 17.9°</text>
<path d="M 1046.0 909.5 L 1036.8 930.4 L 1011.8 945.7 L 977.5 951.3 L 943.3 945.7 L 918.3 930.4 L 909.1 909.5 L 918.2 888.5 L 943.3 873.2 L 977.5 867.6 L 1015.1 869.6 L 1042.7 886.5 Z" fill="#EDF0E4" stroke="#DCE3E8" stroke-width="2" filter="url(#softShadow)"/>
<path d="M 547.5 1250.5 L 535.8 1277.2 L 503.9 1296.7 L 460.3 1303.9 L 416.6 1296.7 L 384.7 1277.2 L 373.0 1250.5 L 384.7 1223.8 L 416.6 1204.3 L 460.3 1197.1 L 499.9 1208.5 L 528.9 1226.3 Z" fill="#E5EBD9" stroke="#DCE3E8" stroke-width="2" filter="url(#softShadow)"/>
<path d="M 2008.6 815.0 L 1999.3 836.1 L 1974.2 851.5 L 1939.7 857.2 L 1905.3 851.5 L 1880.1 836.1 L 1870.9 815.0 L 1880.1 794.0 L 1905.3 778.6 L 1939.7 772.9 L 1983.1 769.1 L 2014.8 788.5 Z" fill="#EDF0E4" stroke="#DCE3E8" stroke-width="2" filter="url(#softShadow)"/>
<path d="M 1826.4 985.0 L 1815.1 1011.0 L 1784.1 1029.9 L 1741.7 1036.9 L 1699.4 1029.9 L 1668.4 1011.0 L 1657.0 985.0 L 1668.4 959.1 L 1699.4 940.1 L 1741.7 933.2 L 1785.8 938.4 L 1818.0 958.1 Z" fill="#E5EBD9" stroke="#DCE3E8" stroke-width="2" filter="url(#softShadow)"/>
<path d="M 1207.5 969.6 L 1197.8 991.7 L 1171.2 1008.0 L 1135.0 1013.9 L 1098.7 1008.0 L 1072.1 991.7 L 1062.4 969.6 L 1072.1 947.4 L 1098.7 931.1 L 1135.0 925.2 L 1177.9 924.1 L 1209.3 943.3 Z" fill="#EDF0E4" stroke="#DCE3E8" stroke-width="2" filter="url(#softShadow)"/>
<path d="M 1143.9 966.2 L 1133.8 989.2 L 1106.2 1006.1 L 1068.6 1012.2 L 1030.9 1006.1 L 1003.3 989.2 L 993.2 966.2 L 1003.3 943.1 L 1030.9 926.2 L 1068.6 920.1 L 1111.3 920.9 L 1142.6 940.0 Z" fill="#E5EBD9" stroke="#DCE3E8" stroke-width="2" filter="url(#softShadow)"/>
<path d="M 1882.6 517.3 L 1870.3 545.5 L 1836.6 566.1 L 1790.6 573.7 L 1744.5 566.1 L 1710.8 545.5 L 1698.5 517.3 L 1710.8 489.1 L 1744.5 468.5 L 1790.6 460.9 L 1837.9 467.1 L 1872.6 488.3 Z" fill="#EDF0E4" stroke="#DCE3E8" stroke-width="2" filter="url(#softShadow)"/>
<path d="M 1834.7 309.5 L 1825.1 331.6 L 1798.6 347.8 L 1762.4 353.7 L 1726.3 347.8 L 1699.8 331.6 L 1690.1 309.5 L 1699.8 287.4 L 1726.3 271.2 L 1762.4 265.2 L 1802.3 267.3 L 1831.5 285.1 Z" fill="#E5EBD9" stroke="#DCE3E8" stroke-width="2" filter="url(#softShadow)"/>
<path d="M 1862.5 807.1 L 1852.9 829.0 L 1826.7 845.0 L 1790.9 850.9 L 1755.1 845.0 L 1728.9 829.0 L 1719.3 807.1 L 1728.9 785.2 L 1755.1 769.1 L 1790.9 763.2 L 1834.1 761.3 L 1865.7 780.7 Z" fill="#EDF0E4" stroke="#DCE3E8" stroke-width="2" filter="url(#softShadow)"/>
<path d="M 896.0 946.9 C 977.5 881.5 1005.5 939.5 1096.9 944.9" fill="none" stroke="#FFFFFF" stroke-width="5" stroke-linecap="round" stroke-opacity="0.72"/>
<path d="M 935.5 889.5 L 1031.5 941.5" fill="none" stroke="#D8C9AA" stroke-width="3" stroke-linecap="round" stroke-opacity="0.72"/>
<path d="M 384.5 1280.1 C 460.3 1222.5 488.3 1280.5 571.0 1277.8" fill="none" stroke="#FFFFFF" stroke-width="5" stroke-linecap="round" stroke-opacity="0.72"/>
<path d="M 1862.1 847.1 C 1939.7 787.0 1967.7 845.0 2053.2 844.9" fill="none" stroke="#FFFFFF" stroke-width="5" stroke-linecap="round" stroke-opacity="0.72"/>
<path d="M 1687.3 985.5 C 1741.7 957.0 1769.7 1015.0 1820.7 982.3" fill="none" stroke="#FFFFFF" stroke-width="5" stroke-linecap="round" stroke-opacity="0.72"/>
<path d="M 1699.7 965.0 L 1795.7 1017.0" fill="none" stroke="#D8C9AA" stroke-width="3" stroke-linecap="round" stroke-opacity="0.72"/>
<path d="M 1055.0 1004.7 C 1135.0 941.6 1163.0 999.6 1251.9 1002.6" fill="none" stroke="#FFFFFF" stroke-width="5" stroke-linecap="round" stroke-opacity="0.72"/>
<path d="M 1013.4 967.6 C 1068.6 938.2 1096.6 996.2 1148.6 964.5" fill="none" stroke="#FFFFFF" stroke-width="5" stroke-linecap="round" stroke-opacity="0.72"/>
<path d="M 1694.1 499.0 C 1776.0 433.1 1804.0 491.1 1895.9 497.1" fill="none" stroke="#FFFFFF" stroke-width="5" stroke-linecap="round" stroke-opacity="0.72"/>
<path d="M 1734.0 441.1 L 1830.0 493.1" fill="none" stroke="#D8C9AA" stroke-width="3" stroke-linecap="round" stroke-opacity="0.72"/>
<path d="M 1726.0 607.5 C 1805.1 545.5 1833.1 603.5 1920.8 605.4" fill="none" stroke="#FFFFFF" stroke-width="5" stroke-linecap="round" stroke-opacity="0.72"/>
<path d="M 1722.2 290.6 C 1762.4 281.5 1790.4 339.5 1820.2 286.8" fill="none" stroke="#FFFFFF" stroke-width="5" stroke-linecap="round" stroke-opacity="0.72"/>
<path d="M 1752.6 785.6 C 1790.9 779.1 1818.9 837.1 1845.9 781.8" fill="none" stroke="#FFFFFF" stroke-width="5" stroke-linecap="round" stroke-opacity="0.72"/>
<path d="M 1748.9 787.1 L 1844.9 839.1" fill="none" stroke="#D8C9AA" stroke-width="3" stroke-linecap="round" stroke-opacity="0.72"/>
<path d="M 86 1434 C 250 1330 362 1398 520 1305 S 840 1214 1105 1328" fill="none" stroke="#FFFFFF" stroke-opacity="0.42" stroke-width="5" stroke-dasharray="18 18" stroke-linecap="round"/>
<text x="56" y="64" fill="#243349" font-size="34" font-family="Helvetica" font-weight="800">Southern Caribbean</text>
<text x="56" y="102" fill="#637083" font-size="22" font-family="Helvetica">Static CruiseKit planning basemap</text>
<text x="2344" y="1504" fill="#637083" font-size="20" font-family="Helvetica" text-anchor="end">CruiseKit static map</text>
</svg>