<?xml version="1.0" encoding="UTF-8"?>
<svg xmlns="http://www.w3.org/2000/svg" width="2400" height="1560" viewBox="0 0 2400 1560" role="img" aria-label="St. Maarten port snapshot">

  <defs>
    <linearGradient id="water" x1="0" y1="0" x2="1" y2="1">
      <stop offset="0" stop-color="#BFE4EA"/>
      <stop offset="1" stop-color="#9BD2DD"/>
    </linearGradient>
    <filter id="softShadow" x="-20%" y="-20%" width="140%" height="140%">
      <feDropShadow dx="0" dy="10" stdDeviation="14" flood-color="#23445A" flood-opacity="0.10"/>
    </filter>
  </defs>
<rect width="2400" height="1560" fill="#BFE4EA"/>
<path d="M -30 500 C 135 390 228 470 348 320 C 470 168 620 156 775 235 C 918 307 980 240 1230 285 L 1230 830 L -30 830 Z" fill="#EDF0E4" stroke="#DCE3E8" stroke-width="3" filter="url(#softShadow)"/>
<path d="M 72 600 C 230 535 338 590 514 500 C 676 418 765 436 922 384 C 1030 348 1112 352 1200 306" fill="none" stroke="#D8C9AA" stroke-width="9" stroke-linecap="round" stroke-opacity="0.82"/>
<path d="M 170 666 C 314 595 452 616 594 550 S 880 500 1060 444" fill="none" stroke="#FFFFFF" stroke-width="16" stroke-linecap="round"/>
<path d="M 220 706 L 295 602 M 374 648 L 428 548 M 530 612 L 590 510 M 706 564 L 780 460 M 880 512 L 930 420" fill="none" stroke="#FFFFFF" stroke-width="9" stroke-linecap="round" stroke-opacity="0.86"/>
<path d="M 110 448 C 180 420 260 430 315 472 S 412 550 530 508" fill="none" stroke="#78C7B8" stroke-width="6" stroke-linecap="round" stroke-dasharray="16 14"/>
<path d="M 901.3 296.0 L 892.4 316.6 L 868.2 331.7 L 835.0 337.2 L 801.8 331.7 L 777.5 316.6 L 768.7 296.0 L 777.5 275.4 L 801.8 260.3 L 835.0 254.8 L 871.6 256.6 L 898.4 273.3 Z" fill="#BFE3C5" fill-opacity="0.74"/>
<path d="M 110 445 L 64 390 L 136 390 Z" fill="#A7DAE3" stroke="#8BCAD5" stroke-width="3"/>
<text x="56" y="64" fill="#243349" font-size="34" font-family="Helvetica" font-weight="800">St. Maarten</text>
<text x="56" y="102" fill="#637083" font-size="22" font-family="Helvetica">Sint Maarten / Saint-Martin · eastern</text>
<text x="90" y="372" fill="#637083" font-size="20" font-family="Helvetica">Cruise pier area</text>
<text x="806" y="284" fill="#637083" font-size="20" font-family="Helvetica">Town / beach area</text>
<text x="2344" y="1504" fill="#637083" font-size="20" font-family="Helvetica" text-anchor="end">CruiseKit static map</text>
</svg>